<svg xmlns="http://www.w3.org/2000/svg" width="25" height="25" viewBox="0 0 25 25" fill="none"><path d="M16.4542 10.2443L12.9167 12.3847V10.6059C12.9166 10.4549 12.8363 10.3154 12.7062 10.2406C12.5761 10.1658 12.4163 10.1673 12.2875 10.2443L8.75 12.3847V10.6059C8.74998 10.4549 8.66963 10.3154 8.53954 10.2406C8.40945 10.1658 8.24961 10.1673 8.12083 10.2443L4.58333 12.3847V10.6059C4.58331 10.4549 4.50297 10.3154 4.37287 10.2406C4.24278 10.1658 4.08294 10.1673 3.95417 10.2443L0.416667 12.3847V13.2257H17.0833V10.6059C17.0833 10.4549 17.003 10.3154 16.8729 10.2406C16.7428 10.1658 16.5829 10.1673 16.4542 10.2443Z" fill="#0377BC"></path><path d="M10.8542 0.967864C10.9818 0.938004 11.1112 0.91693 11.2417 0.904787L11.1875 1.06038C11.1792 1.05617 11.1667 1.05197 11.1583 1.04776C11.0587 1.01473 10.9571 0.98805 10.8542 0.967864Z" fill="#607D8B"></path><path d="M20.4167 1.02674C19.7264 0.502533 18.8442 0.307578 18 0.492688L17.7458 0.543149C17.3704 0.626203 17.0075 0.759121 16.6667 0.938428L16.5708 1.02674C16.3891 0.888939 16.1901 0.775836 15.9792 0.690327C15.3335 0.444691 14.6354 0.373659 13.9542 0.484277C13.8296 0.49741 13.7059 0.51706 13.5833 0.543149C13.2113 0.617689 12.8482 0.731866 12.5 0.883762L12.4375 1.06038C12.4292 1.05617 12.4167 1.05197 12.4083 1.04776C12.0318 0.92675 11.636 0.878251 11.2417 0.904787L11.1875 1.06038C11.1792 1.05617 11.1667 1.05197 11.1583 1.04776C11.0587 1.01473 10.9571 0.98805 10.8542 0.967864C10.6179 1.02143 10.3925 1.11529 10.1875 1.2454C9.34591 1.82146 8.97291 2.88265 9.26667 3.86518C9.518 4.55716 10.1236 5.05547 10.8458 5.16455L10.8333 5.23604C10.8333 5.23604 10.8333 7.33859 14.1667 7.33859L14.1917 7.32177C14.3893 7.57996 14.6469 7.78504 14.9417 7.91889C15.1467 8.01595 15.364 8.08387 15.5875 8.12074C15.806 8.16116 16.0278 8.18087 16.25 8.17961C17.2864 8.17928 18.2485 7.6365 18.7917 6.74567L21.25 2.71298C21.2188 2.05784 20.9164 1.44603 20.4167 1.02674Z" fill="#607D8B"></path><path d="M19.85 2.96108L17.5417 6.74567C17.1066 7.4569 16.3992 7.95465 15.5875 8.12074C15.364 8.08387 15.1467 8.01595 14.9417 7.91889C14.6469 7.78504 14.3893 7.57996 14.1917 7.32177L14.1667 7.33859C10.8333 7.33859 10.8333 5.23604 10.8333 5.23604L10.8458 5.16455C10.1236 5.05547 9.518 4.55716 9.26667 3.86518C8.97291 2.88265 9.34591 1.82146 10.1875 1.2454C10.3925 1.11529 10.6179 1.02143 10.8542 0.967864C10.9571 0.98805 11.0587 1.01473 11.1583 1.04776C11.1667 1.05197 11.1792 1.05617 11.1875 1.06038L11.2417 0.904787C11.636 0.878251 12.0318 0.92675 12.4083 1.04776C12.4167 1.05197 12.4292 1.05617 12.4375 1.06038L12.5 0.883762C12.8482 0.731866 13.2113 0.617689 13.5833 0.543149C13.7059 0.51706 13.8296 0.49741 13.9542 0.484277C14.6354 0.373659 15.3335 0.444691 15.9792 0.690327C16.1901 0.775836 16.3891 0.888939 16.5708 1.02674L16.6667 0.938428C17.0075 0.759121 17.3704 0.626203 17.7458 0.543149L18 0.492688C18.4288 0.563516 18.8314 0.747789 19.1667 1.02673C19.5719 1.37077 19.8519 1.84131 19.9625 2.36396C19.9993 2.57019 19.9593 2.78289 19.85 2.96108Z" fill="#CFD8DC"></path><path d="M22.0833 4.90804V6.91808H19.5833V4.90804C19.5845 4.62519 19.8114 4.39617 20.0917 4.39502H21.575C21.8553 4.39617 22.0822 4.62519 22.0833 4.90804Z" fill="#37474F"></path><path d="M23.3333 15.7488H18.3333L19.475 6.91808L19.5833 6.07706H22.0833L23.3333 15.7488Z" fill="#37474F"></path><path d="M20.8333 4.90804V6.91808H19.475L19.5833 6.07706V4.90804C19.5845 4.62519 19.8114 4.39617 20.0917 4.39502H20.325C20.6053 4.39617 20.8322 4.62519 20.8333 4.90804Z" fill="#607D8B"></path><path d="M22.0833 15.7488H18.3333L19.475 6.91808L19.5833 6.07706H20.8333L22.0833 15.7488Z" fill="#607D8B"></path><path d="M24.5833 15.7614V23.318H16.25V15.3283H24.1542C24.268 15.3282 24.3772 15.3738 24.4578 15.455C24.5383 15.5363 24.5834 15.6465 24.5833 15.7614Z" fill="#1566C0"></path><path d="M23.3333 15.7614V23.318H16.25V15.3283H22.9042C23.018 15.3282 23.1272 15.3738 23.2078 15.455C23.2883 15.5363 23.3334 15.6465 23.3333 15.7614Z" fill="#2296F3"></path><path d="M17.0833 12.3847H0.416667V23.318H17.0833V12.3847Z" fill="#0377BC"></path><path d="M15.8333 12.3847H0.416667V23.318H15.8333V12.3847Z" fill="#02A9F4"></path><path d="M4.58333 17.4308H2.5C2.26988 17.4308 2.08333 17.6191 2.08333 17.8513V19.5334C2.08333 19.7656 2.26988 19.9539 2.5 19.9539H4.58333C4.81345 19.9539 5 19.7656 5 19.5334V17.8513C5 17.6191 4.81345 17.4308 4.58333 17.4308Z" fill="white"></path><path d="M9.16667 17.4308H7.08333C6.85321 17.4308 6.66667 17.6191 6.66667 17.8513V19.5334C6.66667 19.7656 6.85321 19.9539 7.08333 19.9539H9.16667C9.39679 19.9539 9.58333 19.7656 9.58333 19.5334V17.8513C9.58333 17.6191 9.39679 17.4308 9.16667 17.4308Z" fill="white"></path><path d="M15.4167 16.6163V23.318H11.25V16.6163C11.2437 16.3771 11.4297 16.1775 11.6667 16.1693H15C15.237 16.1775 15.423 16.3771 15.4167 16.6163Z" fill="#607D8B"></path><path d="M20 19.9539H21.6667C21.8968 19.9539 22.0833 20.1422 22.0833 20.3744V22.8975H19.5833V20.3744C19.5833 20.1422 19.7699 19.9539 20 19.9539Z" fill="#FFEB3A"></path><path d="M24.5833 22.8975V24.159C24.5833 24.3912 24.3968 24.5795 24.1667 24.5795H0.833333C0.603215 24.5795 0.416667 24.3912 0.416667 24.159V22.8975H24.5833Z" fill="#FDD834"></path><path d="M23.3333 22.8975V24.159C23.3333 24.3912 23.1468 24.5795 22.9167 24.5795H0.833333C0.603215 24.5795 0.416667 24.3912 0.416667 24.159V22.8975H23.3333Z" fill="#FFEB3A"></path><path d="M0.833333 25H24.1667C24.6269 25 25 24.6235 25 24.159V15.3283C25 15.096 24.8135 14.9078 24.5833 14.9078H23.6971L22.5 6.0472V4.39502C22.5 4.16278 22.3135 3.97451 22.0833 3.97451H19.5833C19.3532 3.97451 19.1667 4.16278 19.1667 4.39502V6.04888L17.9696 14.9078H17.5V9.86165C17.5 9.71012 17.4192 9.57032 17.2885 9.49572C17.1578 9.42111 16.9975 9.42323 16.8688 9.50127L13.3333 11.6421V9.86165C13.3333 9.71012 13.2525 9.57032 13.1218 9.49572C12.9911 9.42111 12.8308 9.42323 12.7021 9.50127L9.16667 11.6421V9.86165C9.16664 9.71012 9.08583 9.57032 8.95515 9.49572C8.82447 9.42111 8.66412 9.42323 8.53542 9.50127L6.45208 10.7628C6.2595 10.8844 6.19895 11.1393 6.31597 11.3359C6.43299 11.5324 6.68444 11.5981 6.88125 11.4836L8.33333 10.6043V11.9642H5V9.86165C4.99997 9.71012 4.91917 9.57032 4.78848 9.49572C4.6578 9.42111 4.49745 9.42323 4.36875 9.50127L0.202083 12.0243C0.189464 12.0345 0.177495 12.0454 0.16625 12.0571C0.14348 12.0742 0.122535 12.0937 0.10375 12.1152C0.0868161 12.1356 0.0720154 12.1577 0.0595833 12.1812C0.0462787 12.2037 0.035251 12.2275 0.0266667 12.2522C0.0178982 12.2796 0.0121685 12.3078 0.00958333 12.3363C0.00533294 12.3522 0.00213147 12.3684 0 12.3847V24.159C0 24.382 0.0877974 24.596 0.244078 24.7537C0.400358 24.9114 0.61232 25 0.833333 25ZM16.6667 12.8052V22.4769H15.8333V16.5898C15.8333 16.1253 15.4602 15.7488 15 15.7488H11.6667C11.2064 15.7488 10.8333 16.1253 10.8333 16.5898V22.4769H0.833333V14.9078H3.75C3.98012 14.9078 4.16667 14.7195 4.16667 14.4873C4.16667 14.255 3.98012 14.0667 3.75 14.0667H0.833333V12.8052H16.6667ZM11.6667 21.6359H13.75C13.9801 21.6359 14.1667 21.4477 14.1667 21.2154C14.1667 20.9832 13.9801 20.7949 13.75 20.7949H11.6667V19.9539H13.75C13.9801 19.9539 14.1667 19.7656 14.1667 19.5334C14.1667 19.3011 13.9801 19.1129 13.75 19.1129H11.6667V18.2718H13.75C13.9801 18.2718 14.1667 18.0836 14.1667 17.8513C14.1667 17.6191 13.9801 17.4308 13.75 17.4308H11.6667V16.5898H15V22.4769H11.6667V21.6359ZM24.1667 24.159H0.833333V23.318H24.1667V24.159ZM21.6667 22.4769H20V20.3744H21.6667V22.4769ZM20 4.81553H21.6667V5.65655H20V4.81553ZM19.9471 6.49757H21.7196L22.8558 14.9078H18.8108L19.9471 6.49757ZM24.1667 15.7488V22.4769H22.5V20.3744C22.5 19.9099 22.1269 19.5334 21.6667 19.5334H20C19.5398 19.5334 19.1667 19.9099 19.1667 20.3744V22.4769H17.5V17.8513H19.1667C19.3968 17.8513 19.5833 17.6631 19.5833 17.4308C19.5833 17.1986 19.3968 17.0103 19.1667 17.0103H17.5V15.7488H24.1667ZM16.6667 11.9642H14.4208L16.6667 10.6043V11.9642ZM12.5 11.9642H10.2542L12.5 10.6043V11.9642ZM4.16667 11.9642H1.92083L4.16667 10.6043V11.9642Z" fill="black"></path><path d="M5.41667 14.9078H10C10.2301 14.9078 10.4167 14.7195 10.4167 14.4873C10.4167 14.255 10.2301 14.0667 10 14.0667H5.41667C5.18655 14.0667 5 14.255 5 14.4873C5 14.7195 5.18655 14.9078 5.41667 14.9078Z" fill="black"></path><path d="M1.66667 17.8513V19.5334C1.66667 19.9979 2.03976 20.3744 2.5 20.3744H4.58333C5.04357 20.3744 5.41667 19.9979 5.41667 19.5334V17.8513C5.41667 17.3869 5.04357 17.0103 4.58333 17.0103H2.5C2.03976 17.0103 1.66667 17.3869 1.66667 17.8513ZM4.58333 19.5334H2.5V17.8513H4.58333V19.5334Z" fill="black"></path><path d="M9.16667 17.0103H7.08333C6.6231 17.0103 6.25 17.3869 6.25 17.8513V19.5334C6.25 19.9979 6.6231 20.3744 7.08333 20.3744H9.16667C9.6269 20.3744 10 19.9979 10 19.5334V17.8513C10 17.3869 9.6269 17.0103 9.16667 17.0103ZM7.08333 19.5334V17.8513H9.16667V19.5334H7.08333Z" fill="black"></path><path d="M20.8333 17.8513H22.9167C23.1468 17.8513 23.3333 17.6631 23.3333 17.4308C23.3333 17.1986 23.1468 17.0103 22.9167 17.0103H20.8333C20.6032 17.0103 20.4167 17.1986 20.4167 17.4308C20.4167 17.6631 20.6032 17.8513 20.8333 17.8513Z" fill="black"></path><path d="M10.4454 5.47951C10.56 6.10061 11.1421 7.69266 14.0079 7.75237C14.6016 8.3442 15.4171 8.65255 16.25 8.60012L16.6938 8.32889C16.7552 8.49218 16.9103 8.60014 17.0833 8.60012H17.6275L16.9388 8.17961L17.6275 7.7591H17.0833C16.9103 7.75907 16.7552 7.86703 16.6938 8.03033L16.25 7.7591C14.25 7.7591 14.1692 6.24989 14.1667 6.07496C14.1661 5.84271 13.9791 5.65492 13.749 5.6555C13.5188 5.65608 13.3328 5.84482 13.3333 6.07706C13.3372 6.35047 13.3867 6.62127 13.4796 6.87813C12.0513 6.72002 11.5342 6.0821 11.3521 5.64604C11.4154 5.6494 11.4804 5.65655 11.5417 5.65655C11.7718 5.65655 11.9583 5.46828 11.9583 5.23604C11.9583 5.0038 11.7718 4.81553 11.5417 4.81553C10.8267 4.81553 9.90542 4.53463 9.66292 3.74197C9.42413 2.93979 9.72754 2.07391 10.4129 1.60157C10.9841 1.27914 11.6658 1.22298 12.2813 1.44767C12.578 1.54662 12.8654 1.67215 13.14 1.82276C13.3425 1.92646 13.59 1.84741 13.6965 1.64501C13.803 1.44262 13.7294 1.19141 13.5308 1.08014C13.4892 1.05785 13.4513 1.04229 13.4104 1.02169C13.4963 0.999402 13.58 0.97333 13.6671 0.955669C14.295 0.829516 15.4742 0.718922 16.3196 1.3623C16.7626 1.67909 17.0426 2.17875 17.0833 2.72517C17.0899 2.95264 17.2745 3.13358 17.5 3.13349H17.5121C17.6226 3.1303 17.7273 3.08291 17.8032 3.00175C17.8791 2.92059 17.9199 2.81232 17.9167 2.70078C17.8878 2.11739 17.6623 1.56145 17.2775 1.12513C17.4594 1.05417 17.6463 0.996958 17.8367 0.953987C18.3846 0.83288 19.4142 0.723547 20.1479 1.34969C20.5575 1.69007 20.8063 2.1887 20.8333 2.72349C20.839 2.95162 21.0239 3.13356 21.25 3.13349H21.2604C21.3709 3.13074 21.4758 3.08377 21.552 3.00293C21.6282 2.92209 21.6695 2.814 21.6667 2.70247C21.632 1.92771 21.276 1.2034 20.6858 0.706727C19.822 0.0465672 18.7012 -0.166113 17.6588 0.132311C17.2804 0.216983 16.914 0.348771 16.5679 0.524646C15.6297 0.0156396 14.538 -0.124724 13.5033 0.130629C13.1016 0.210879 12.7096 0.334082 12.3338 0.498154C12.298 0.516279 12.265 0.539505 12.2358 0.567118C11.4663 0.37008 10.6508 0.48638 9.96542 0.89091C8.95952 1.5644 8.51245 2.82544 8.86667 3.99007C9.11277 4.72191 9.70535 5.28096 10.4454 5.47951Z" fill="black"></path></svg>