<svg xmlns="http://www.w3.org/2000/svg" width="28" height="27" viewBox="0 0 28 27" fill="none"><path d="M27.1107 23.4562C27.1107 26.9356 24.524 27 21.333 27C18.1421 27 15.5553 26.9356 15.5553 23.4562C15.5553 19.9768 18.1421 14.4 21.333 14.4C24.524 14.4 27.1107 19.9768 27.1107 23.4562Z" fill="#7E8589"></path><path d="M25.7774 25.2C25.8975 25.2 26.0164 25.2246 26.1269 25.2725C26.2373 25.3203 26.337 25.3902 26.42 25.4782C26.503 25.5661 26.5676 25.6701 26.6097 25.784C26.6519 25.8979 26.6708 26.0192 26.6654 26.1407C26.6441 26.6264 26.2298 27 25.7496 27H23.1138C22.8773 27 22.6504 26.9049 22.4831 26.7355C22.3159 26.5662 22.2219 26.3365 22.2219 26.097V25.2029C22.2219 25.2025 22.2218 25.2022 22.2217 25.2018C22.2215 25.2014 22.2213 25.2011 22.2211 25.2008C22.2208 25.2006 22.2205 25.2003 22.2201 25.2002C22.2197 25.2001 22.2194 25.2 22.219 25.2C21.7204 25.1984 21.3557 24.8 21.335 24.3003L21.333 24.3L21.331 24.3003C21.3104 24.8 20.9457 25.1984 20.4471 25.2C20.4467 25.2 20.4463 25.2001 20.446 25.2002C20.4456 25.2003 20.4453 25.2006 20.445 25.2008C20.4448 25.2011 20.4445 25.2014 20.4444 25.2018C20.4442 25.2022 20.4442 25.2025 20.4442 25.2029V26.097C20.4442 26.3365 20.3502 26.5662 20.1829 26.7355C20.0157 26.9049 19.7888 27 19.5523 27H16.9164C16.4362 27 16.0217 26.6264 16.0006 26.1407C15.9951 26.0192 16.0141 25.8979 16.0562 25.784C16.0984 25.6701 16.163 25.566 16.246 25.4781C16.329 25.3902 16.4287 25.3202 16.5392 25.2724C16.6496 25.2246 16.7685 25.2 16.8887 25.2H17.3301C17.3309 25.2 17.3317 25.1997 17.3322 25.1991C17.3328 25.1985 17.3331 25.1978 17.3331 25.197V17.1C17.3331 16.1452 17.7077 15.2295 18.3745 14.5544C19.0413 13.8793 19.9456 13.5 20.8886 13.5H21.7775C22.7205 13.5 23.6248 13.8793 24.2916 14.5544C24.9584 15.2295 25.333 16.1452 25.333 17.1V25.197C25.333 25.1978 25.3333 25.1985 25.3339 25.1991C25.3344 25.1997 25.3352 25.2 25.336 25.2H25.7774Z" fill="#9AA3A8"></path><path d="M21.333 24.75C21.2152 24.75 21.1021 24.7026 21.0188 24.6182C20.9354 24.5338 20.8886 24.4193 20.8886 24.3V22.5C20.8886 22.3807 20.9354 22.2662 21.0188 22.1818C21.1021 22.0974 21.2152 22.05 21.333 22.05C21.4509 22.05 21.564 22.0974 21.6473 22.1818C21.7307 22.2662 21.7775 22.3807 21.7775 22.5V24.3C21.7775 24.4193 21.7307 24.5338 21.6473 24.6182C21.564 24.7026 21.4509 24.75 21.333 24.75Z" fill="#B6B9BA"></path><path d="M18.222 25.65H16.8887C16.7708 25.65 16.6577 25.6026 16.5744 25.5182C16.491 25.4338 16.4442 25.3193 16.4442 25.2C16.4442 25.0807 16.491 24.9662 16.5744 24.8818C16.6577 24.7974 16.7708 24.75 16.8887 24.75H18.222C18.3398 24.75 18.4529 24.7974 18.5362 24.8818C18.6196 24.9662 18.6664 25.0807 18.6664 25.2C18.6664 25.3193 18.6196 25.4338 18.5362 25.5182C18.4529 25.6026 18.3398 25.65 18.222 25.65Z" fill="#B6B9BA"></path><path d="M22.6664 20.8929C22.6664 22.1355 22.0694 22.5 21.333 22.5C20.5967 22.5 19.9997 22.1355 19.9997 20.8929C19.9997 19.6503 20.5967 18 21.333 18C22.0694 18 22.6664 19.6502 22.6664 20.8929Z" fill="#7E8589"></path><path d="M26.2839 24.3H19.9377C19.2356 24.3 18.6664 24.8763 18.6664 25.5872V25.7128C18.6664 26.4237 19.2356 27 19.9377 27H26.2839C26.986 27 27.5552 26.4237 27.5552 25.7128V25.5872C27.5552 24.8763 26.986 24.3 26.2839 24.3Z" fill="#B6B9BA"></path><path d="M21.333 24.3V27H19.9375C19.6004 26.9999 19.2772 26.8642 19.0388 26.6229C18.8005 26.3816 18.6665 26.0543 18.6664 25.713V25.587C18.6665 25.2457 18.8005 24.9184 19.0388 24.6771C19.2772 24.4358 19.6004 24.3001 19.9375 24.3H21.333Z" fill="#7E8589"></path><path d="M26.2219 11.25V5.50648C26.2218 5.40727 26.1955 5.30988 26.1458 5.22441C26.096 5.13895 26.0246 5.06853 25.9389 5.02045C25.8531 4.97238 25.7563 4.94841 25.6583 4.95102C25.5604 4.95364 25.4649 4.98275 25.3818 5.03533L23.1108 6.75H19.5553L17.2843 5.03533C17.2012 4.98275 17.1057 4.95364 17.0077 4.95102C16.9098 4.94841 16.8129 4.97238 16.7272 5.02045C16.6415 5.06853 16.5701 5.13895 16.5203 5.22441C16.4705 5.30988 16.4443 5.40727 16.4442 5.50648V11.25H26.2219Z" fill="#9AA3A8"></path><path d="M26.2219 11.3318C26.2219 14.3142 24.483 14.85 21.333 14.85C18.1831 14.85 16.4442 14.3142 16.4442 11.3318C16.4442 8.34952 18.1831 5.85 21.333 5.85C24.483 5.85 26.2219 8.34947 26.2219 11.3318Z" fill="#B6B9BA"></path><path d="M21.7775 5.86744V8.55C21.7775 8.66935 21.7307 8.78381 21.6473 8.8682C21.564 8.95259 21.4509 9 21.333 9C21.2152 9 21.1021 8.95259 21.0188 8.8682C20.9354 8.78381 20.8886 8.66935 20.8886 8.55V5.86744C21.0336 5.85562 21.1817 5.84981 21.333 5.85C21.4843 5.85019 21.6325 5.856 21.7775 5.86744Z" fill="#7E8589"></path><path d="M23.5552 6.3495V7.65C23.5552 7.76935 23.5084 7.88381 23.4251 7.9682C23.3417 8.05259 23.2287 8.1 23.1108 8.1C22.9929 8.1 22.8799 8.05259 22.7965 7.9682C22.7132 7.88381 22.6664 7.76935 22.6664 7.65V6.01538C22.9733 6.09511 23.2712 6.2071 23.5552 6.3495Z" fill="#7E8589"></path><path d="M19.9997 6.01538V7.65C19.9997 7.76935 19.9529 7.88381 19.8696 7.9682C19.7862 8.05259 19.6732 8.1 19.5553 8.1C19.4374 8.1 19.3244 8.05259 19.241 7.9682C19.1577 7.88381 19.1108 7.76935 19.1108 7.65V6.3495C19.3948 6.2071 19.6928 6.09511 19.9997 6.01538Z" fill="#7E8589"></path><path d="M17.3336 10.8C17.3042 10.8 17.2748 10.7971 17.2459 10.7912L15.0237 10.3412C14.9665 10.3296 14.9121 10.3067 14.8636 10.2739C14.8151 10.241 14.7735 10.1987 14.7411 10.1496C14.7087 10.1004 14.6862 10.0453 14.6749 9.98728C14.6636 9.9293 14.6636 9.86964 14.6751 9.81169C14.6865 9.75374 14.7091 9.69864 14.7416 9.64953C14.7741 9.60043 14.8158 9.55829 14.8644 9.5255C14.9129 9.49272 14.9674 9.46995 15.0247 9.45848C15.0819 9.44701 15.1408 9.44707 15.1981 9.45866L17.4203 9.90866C17.5285 9.93047 17.6248 9.99224 17.6905 10.082C17.7562 10.1717 17.7866 10.2829 17.7758 10.3941C17.765 10.5052 17.7137 10.6084 17.632 10.6834C17.5503 10.7584 17.4439 10.8 17.3336 10.8Z" fill="#7E8589"></path><path d="M15.1104 13.05C15.0001 13.05 14.8937 13.0084 14.812 12.9334C14.7303 12.8584 14.679 12.7552 14.6682 12.6441C14.6574 12.5329 14.6878 12.4217 14.7535 12.332C14.8192 12.2422 14.9155 12.1805 15.0237 12.1587L17.2459 11.7087C17.3615 11.6853 17.4816 11.7093 17.5796 11.7755C17.6777 11.8417 17.7458 11.9447 17.7689 12.0617C17.792 12.1787 17.7683 12.3003 17.7029 12.3996C17.6375 12.4989 17.5359 12.5678 17.4203 12.5912L15.1981 13.0412C15.1692 13.0471 15.1398 13.05 15.1104 13.05Z" fill="#7E8589"></path><path d="M25.3325 10.8C25.2222 10.8 25.1158 10.7584 25.0341 10.6834C24.9524 10.6084 24.9011 10.5052 24.8903 10.3941C24.8795 10.2829 24.9099 10.1717 24.9756 10.082C25.0413 9.99224 25.1376 9.93047 25.2458 9.90866L27.468 9.45866C27.5252 9.44707 27.5842 9.44701 27.6414 9.45848C27.6987 9.46995 27.7532 9.49272 27.8017 9.5255C27.8503 9.55829 27.892 9.60043 27.9245 9.64953C27.957 9.69864 27.9796 9.75374 27.991 9.81169C28.0025 9.86964 28.0025 9.9293 27.9912 9.98728C27.9799 10.0453 27.9574 10.1004 27.925 10.1496C27.8926 10.1987 27.851 10.241 27.8025 10.2739C27.754 10.3067 27.6996 10.3296 27.6423 10.3412L25.4202 10.7912C25.3913 10.7971 25.3619 10.8 25.3325 10.8Z" fill="#7E8589"></path><path d="M27.5557 13.05C27.5262 13.05 27.4969 13.0471 27.468 13.0412L25.2458 12.5912C25.1302 12.5678 25.0286 12.4989 24.9632 12.3996C24.8978 12.3003 24.874 12.1787 24.8972 12.0617C24.9203 11.9447 24.9884 11.8417 25.0864 11.7755C25.1845 11.7093 25.3046 11.6853 25.4202 11.7087L27.6423 12.1587C27.7505 12.1805 27.8468 12.2422 27.9126 12.332C27.9783 12.4217 28.0087 12.5329 27.9979 12.6441C27.9871 12.7552 27.9358 12.8584 27.8541 12.9334C27.7724 13.0084 27.666 13.05 27.5557 13.05Z" fill="#7E8589"></path><path d="M0 24.3H7.99989V27H2.66663C1.9594 27 1.28113 26.7155 0.781038 26.2092C0.280948 25.7028 0 25.0161 0 24.3Z" fill="#8C5237"></path><path d="M15.5553 22.95C15.5553 26.9264 12.5706 27 8.88877 27C5.20693 27 2.22219 26.9264 2.22219 22.95C2.22219 18.9736 5.20693 12.6 8.88877 12.6C12.5706 12.6 15.5553 18.9736 15.5553 22.95Z" fill="#B37A60"></path><path d="M14.222 25.2C14.4578 25.2 14.6839 25.2948 14.8506 25.4636C15.0173 25.6324 15.1109 25.8613 15.1109 26.1C15.1109 26.3387 15.0173 26.5676 14.8506 26.7364C14.6839 26.9052 14.4578 27 14.222 27H10.6665C10.4308 27 10.2047 26.9052 10.038 26.7364C9.87129 26.5676 9.77764 26.3387 9.77764 26.1V25.2C9.27765 25.2 8.91138 24.801 8.89077 24.3003L8.88877 24.3L8.88677 24.3003C8.86616 24.801 8.49988 25.2 7.99989 25.2V26.1C7.99989 26.3387 7.90624 26.5676 7.73954 26.7364C7.57285 26.9052 7.34676 27 7.11101 27H3.55551C3.31976 27 3.09367 26.9052 2.92698 26.7364C2.76028 26.5676 2.66663 26.3387 2.66663 26.1C2.66663 25.8613 2.76028 25.6324 2.92698 25.4636C3.09367 25.2948 3.31976 25.2 3.55551 25.2H3.99995V15.3C3.99995 14.1065 4.46819 12.9619 5.30168 12.118C6.13516 11.2741 7.2656 10.8 8.44433 10.8H9.33321C10.5119 10.8 11.6424 11.2741 12.4759 12.118C13.3093 12.9619 13.7776 14.1065 13.7776 15.3V25.2H14.222Z" fill="#D49073"></path><path d="M8.88877 24.75C8.7709 24.75 8.65785 24.7026 8.5745 24.6182C8.49115 24.5338 8.44433 24.4193 8.44433 24.3V21.15C8.44433 21.0307 8.49115 20.9162 8.5745 20.8318C8.65785 20.7474 8.7709 20.7 8.88877 20.7C9.00664 20.7 9.11969 20.7474 9.20303 20.8318C9.28638 20.9162 9.33321 21.0307 9.33321 21.15V24.3C9.33321 24.4193 9.28638 24.5338 9.20303 24.6182C9.11969 24.7026 9.00664 24.75 8.88877 24.75Z" fill="#C48669"></path><path d="M5.33326 25.65H3.99995C3.88207 25.65 3.76903 25.6026 3.68568 25.5182C3.60233 25.4338 3.55551 25.3193 3.55551 25.2C3.55551 25.0807 3.60233 24.9662 3.68568 24.8818C3.76903 24.7974 3.88207 24.75 3.99995 24.75H5.33326C5.45113 24.75 5.56418 24.7974 5.64753 24.8818C5.73087 24.9662 5.7777 25.0807 5.7777 25.2C5.7777 25.3193 5.73087 25.4338 5.64753 25.5182C5.56418 25.6026 5.45113 25.65 5.33326 25.65Z" fill="#C48669"></path><path d="M13.7776 25.65H12.4443C12.3264 25.65 12.2134 25.6026 12.13 25.5182C12.0467 25.4338 11.9998 25.3193 11.9998 25.2C11.9998 25.0807 12.0467 24.9662 12.13 24.8818C12.2134 24.7974 12.3264 24.75 12.4443 24.75H13.7776C13.8955 24.75 14.0085 24.7974 14.0919 24.8818C14.1752 24.9662 14.222 25.0807 14.222 25.2C14.222 25.3193 14.1752 25.4338 14.0919 25.5182C14.0085 25.6026 13.8955 25.65 13.7776 25.65Z" fill="#C48669"></path><path d="M11.111 19.35C11.111 21.0897 10.116 21.6 8.88877 21.6C7.66151 21.6 6.66658 21.0897 6.66658 19.35C6.66658 17.6103 7.66151 15.3 8.88877 15.3C10.116 15.3 11.111 17.6103 11.111 19.35Z" fill="#B37A60"></path><path d="M8.44433 0.9H5.4337C4.81777 0.989662 4.36788 1.38037 3.99995 1.80562L1.6672 4.97475C0.689768 6.78487 1.97547 9 4.00372 9H8.44433V0.9Z" fill="#8C5237"></path><path d="M9.33321 0.9H12.3438C12.9598 0.989662 13.4096 1.38037 13.7776 1.80562L16.1103 4.97475C17.0878 6.78487 15.8021 9 13.7738 9H9.33321V0.9Z" fill="#8C5237"></path><path d="M8.88877 0C6.66658 0 5.7777 1.35 4.88882 4.05C3.99995 6.75 3.55551 6.75 3.55551 8.55C3.55551 10.35 4.44438 11.6837 5.33326 11.6837H12.4443C13.3332 11.6837 14.222 10.35 14.222 8.55C14.222 6.75 13.7776 6.75 12.8887 4.05C11.9998 1.35 11.111 0 8.88877 0Z" fill="#C48669"></path><path d="M11.9998 10.3337C11.9998 11.9492 10.607 11.6837 8.88877 11.6837C7.17057 11.6837 5.7777 11.9492 5.7777 10.3337C5.7777 8.7183 7.17057 5.83374 8.88877 5.83374C10.607 5.83374 11.9998 8.71836 11.9998 10.3337Z" fill="#F0C6A4"></path><path d="M10.6665 4.93374C10.912 4.93374 11.111 4.73227 11.111 4.48374C11.111 4.23522 10.912 4.03374 10.6665 4.03374C10.4211 4.03374 10.2221 4.23522 10.2221 4.48374C10.2221 4.73227 10.4211 4.93374 10.6665 4.93374Z" fill="#8C5237"></path><path d="M7.11101 4.93374C7.35647 4.93374 7.55545 4.73227 7.55545 4.48374C7.55545 4.23522 7.35647 4.03374 7.11101 4.03374C6.86556 4.03374 6.66658 4.23522 6.66658 4.48374C6.66658 4.73227 6.86556 4.93374 7.11101 4.93374Z" fill="#8C5237"></path><path d="M10.2221 9.45C9.41604 9.45 9.33998 9.0756 9.33321 8.99066V8.55C9.45108 8.55 9.56412 8.50259 9.64747 8.4182C9.73082 8.33381 9.77764 8.21935 9.77764 8.1C9.77764 7.66372 9.46615 7.2 8.88877 7.2C8.31139 7.2 7.99989 7.66372 7.99989 8.1C7.99989 8.21935 8.04671 8.33381 8.13006 8.4182C8.21341 8.50259 8.32646 8.55 8.44433 8.55V9C8.43238 9.06525 8.40577 9.12683 8.36655 9.18C8.23572 9.35662 7.95545 9.45 7.55545 9.45C7.43758 9.45 7.32453 9.49741 7.24119 9.5818C7.15784 9.66619 7.11101 9.78065 7.11101 9.9C7.11101 10.0193 7.15784 10.1338 7.24119 10.2182C7.32453 10.3026 7.43758 10.35 7.55545 10.35C8.21328 10.35 8.62766 10.1627 8.88877 9.92768C9.14987 10.1627 9.56426 10.35 10.2221 10.35C10.34 10.35 10.453 10.3026 10.5363 10.2182C10.6197 10.1338 10.6665 10.0193 10.6665 9.9C10.6665 9.78065 10.6197 9.66619 10.5363 9.5818C10.453 9.49741 10.34 9.45 10.2221 9.45Z" fill="#8C5237"></path><path d="M23.1108 25.2C23.1108 25.3193 23.1576 25.4338 23.241 25.5182C23.3243 25.6026 23.4374 25.65 23.5552 25.65C23.6731 25.65 23.7861 25.6026 23.8695 25.5182C23.9528 25.4338 23.9997 25.3193 23.9997 25.2V24.3H23.1108V25.2Z" fill="#7E8589"></path><path d="M24.8885 24.3V25.2C24.8885 25.3193 24.9354 25.4338 25.0187 25.5182C25.1021 25.6026 25.2151 25.65 25.333 25.65C25.4509 25.65 25.5639 25.6026 25.6473 25.5182C25.7306 25.4338 25.7774 25.3193 25.7774 25.2V24.3H24.8885Z" fill="#7E8589"></path><path d="M18.222 18.45H17.3331V19.35H18.222C18.3398 19.35 18.4529 19.3026 18.5362 19.2182C18.6196 19.1338 18.6664 19.0193 18.6664 18.9C18.6664 18.7807 18.6196 18.6662 18.5362 18.5818C18.4529 18.4974 18.3398 18.45 18.222 18.45Z" fill="#7E8589"></path><path d="M18.222 20.25H17.3331V21.15H18.222C18.3398 21.15 18.4529 21.1026 18.5362 21.0182C18.6196 20.9338 18.6664 20.8193 18.6664 20.7C18.6664 20.5807 18.6196 20.4662 18.5362 20.3818C18.4529 20.2974 18.3398 20.25 18.222 20.25Z" fill="#7E8589"></path><path d="M23.9997 20.7C23.9997 20.8193 24.0465 20.9338 24.1298 21.0182C24.2132 21.1026 24.3262 21.15 24.4441 21.15H25.333V20.25H24.4441C24.3262 20.25 24.2132 20.2974 24.1298 20.3818C24.0465 20.4662 23.9997 20.5807 23.9997 20.7Z" fill="#7E8589"></path><path d="M23.9997 18.9C23.9997 19.0193 24.0465 19.1338 24.1298 19.2182C24.2132 19.3026 24.3262 19.35 24.4441 19.35H25.333V18.45H24.4441C24.3262 18.45 24.2132 18.4974 24.1298 18.5818C24.0465 18.6662 23.9997 18.7807 23.9997 18.9Z" fill="#7E8589"></path><path d="M23.5552 10.35C23.8007 10.35 23.9997 10.1485 23.9997 9.9C23.9997 9.65147 23.8007 9.45 23.5552 9.45C23.3098 9.45 23.1108 9.65147 23.1108 9.9C23.1108 10.1485 23.3098 10.35 23.5552 10.35Z" fill="#7E8589"></path><path d="M19.1108 10.35C19.3563 10.35 19.5553 10.1485 19.5553 9.9C19.5553 9.65147 19.3563 9.45 19.1108 9.45C18.8654 9.45 18.6664 9.65147 18.6664 9.9C18.6664 10.1485 18.8654 10.35 19.1108 10.35Z" fill="#7E8589"></path><path d="M22.4201 12.6472C22.1354 12.503 21.8229 12.2563 21.7775 12.1415V10.8C21.7775 10.6807 21.7307 10.5662 21.6473 10.4818C21.564 10.3974 21.4509 10.35 21.333 10.35C21.2152 10.35 21.1021 10.3974 21.0188 10.4818C20.9354 10.5662 20.8886 10.6807 20.8886 10.8V12.1361C20.8452 12.2515 20.5315 12.5017 20.2454 12.6475C20.1927 12.6737 20.1457 12.7101 20.107 12.7548C20.0683 12.7994 20.0387 12.8514 20.02 12.9076C20.0012 12.9639 19.9936 13.0234 19.9977 13.0826C20.0017 13.1419 20.0173 13.1997 20.0436 13.2528C20.0698 13.306 20.1062 13.3533 20.1505 13.3921C20.1949 13.4309 20.2465 13.4605 20.3022 13.479C20.3579 13.4976 20.4167 13.5048 20.4752 13.5002C20.5337 13.4957 20.5907 13.4794 20.6429 13.4525C20.8916 13.3272 21.1232 13.1698 21.3318 12.9842C21.5416 13.1703 21.7745 13.328 22.0246 13.4531C22.1301 13.5061 22.2521 13.5146 22.3638 13.4766C22.4755 13.4386 22.5677 13.3573 22.6202 13.2504C22.6727 13.1436 22.6811 13.0201 22.6436 12.907C22.6062 12.7939 22.5259 12.7004 22.4204 12.6472H22.4201Z" fill="#7E8589"></path><path d="M21.333 10.35C20.7557 10.35 20.4442 10.8137 20.4442 11.25C20.443 11.3693 20.4887 11.4843 20.5712 11.5695C20.6537 11.6548 20.7663 11.7033 20.8841 11.7045C21.002 11.7057 21.1155 11.6595 21.1997 11.5759C21.2839 11.4924 21.3319 11.3784 21.333 11.2591C21.333 11.2603 21.333 11.2616 21.3334 11.2627C21.3334 11.2602 21.3334 11.2581 21.333 11.2563C21.3327 11.2545 21.333 11.2521 21.333 11.25C21.333 11.3693 21.3799 11.4838 21.4632 11.5682C21.5466 11.6526 21.6596 11.7 21.7775 11.7C21.8954 11.7 22.0084 11.6526 22.0917 11.5682C22.1751 11.4838 22.2219 11.3693 22.2219 11.25C22.2219 10.8137 21.9104 10.35 21.333 10.35Z" fill="#7E8589"></path></svg>