<svg xmlns="http://www.w3.org/2000/svg" width="29" height="23" viewBox="0 0 29 23" fill="none"><path d="M22.8158 10.4021H6.18377C5.9284 10.4021 5.72177 10.611 5.72177 10.8687V14.2084C5.72177 17.0451 9.57752 19.2673 14.4998 19.2673C19.4221 19.2673 23.2778 17.0451 23.2778 14.2084V10.8687C23.2778 10.611 23.0712 10.4021 22.8158 10.4021Z" fill="#5D647F"></path><path d="M14.5142 10.4021H6.18377C5.9284 10.4021 5.72177 10.611 5.72177 10.8687V14.2084C5.72177 17.0451 9.57752 19.2673 14.4998 19.2673C14.5046 19.2673 14.5094 19.2669 14.5142 19.2669V10.4021Z" fill="#5C546A"></path><path d="M27.8802 5.42087L16.1357 0.337069C15.0962 -0.112667 13.9024 -0.112434 12.8621 0.338235L1.1203 5.42041C0.429084 5.71955 0 6.37704 0 7.13618C0 7.89509 0.429084 8.55188 1.11983 8.85079L12.8639 13.9345C13.3831 14.1592 13.9408 14.2715 14.4989 14.2715C15.0579 14.2715 15.6169 14.1589 16.1375 13.9334L27.8793 8.8512C28.5705 8.55229 29 7.8948 29 7.13566C29.0001 6.3768 28.571 5.71978 27.8802 5.42087Z" fill="#527992"></path><path d="M2.94976 16.9344C2.69439 16.9344 2.48776 16.7255 2.48776 16.4678V9.39483C2.48776 8.93962 2.80989 8.55299 3.25388 8.4753L12.5728 6.83838C12.8242 6.79464 13.0633 6.96436 13.107 7.21818C13.1508 7.47201 12.9825 7.71371 12.7307 7.75792L3.41176 9.39483V16.4677C3.41176 16.7255 3.20513 16.9344 2.94976 16.9344Z" fill="#5C546A"></path><path d="M2.94976 17.8675C3.46008 17.8675 3.87377 17.4498 3.87377 16.9344C3.87377 16.419 3.46008 16.0012 2.94976 16.0012C2.43945 16.0012 2.02576 16.419 2.02576 16.9344C2.02576 17.4498 2.43945 17.8675 2.94976 17.8675Z" fill="#FF9600"></path><path d="M12.6518 6.66936V7.60254C12.6518 8.11789 13.4792 8.53572 14.4998 8.53572C15.5204 8.53572 16.3478 8.11789 16.3478 7.60254V6.66936H12.6518Z" fill="#FF9600"></path><path d="M14.4998 7.60254C15.5204 7.60254 16.3478 7.18474 16.3478 6.66936C16.3478 6.15397 15.5204 5.73617 14.4998 5.73617C13.4792 5.73617 12.6518 6.15397 12.6518 6.66936C12.6518 7.18474 13.4792 7.60254 14.4998 7.60254Z" fill="#FFD200"></path><path d="M2.00041 18.7968L1.66788 22.4912C1.64328 22.7644 1.85632 23 2.12798 23H3.88815C4.1598 23 4.37284 22.7644 4.34824 22.4912L4.01572 18.7968C3.96836 18.2705 3.53137 17.8675 3.00809 17.8675C2.48482 17.8676 2.04782 18.2705 2.00041 18.7968Z" fill="#FFD200"></path></svg>