<svg xmlns="http://www.w3.org/2000/svg" width="26" height="36" viewBox="0 0 26 36" fill="none"><path d="M23.2737 5.70241L23.5836 5.616L23.2737 5.52959C22.5385 5.328 21.9691 4.752 21.7672 4.02476L21.6807 3.71517L21.5942 4.02476C21.3924 4.75193 20.823 5.32793 20.0878 5.52959L19.7779 5.616L20.0878 5.70241C20.823 5.904 21.3924 6.48 21.5942 7.20724L21.6807 7.51683L21.7672 7.20724C21.969 6.47283 22.5385 5.904 23.2737 5.70241Z" fill="#F0C020"></path><path d="M21.6808 7.87683C21.5222 7.87683 21.3781 7.76883 21.3348 7.61041L21.2483 7.30083C21.0826 6.696 20.5996 6.21366 19.9942 6.048L19.6843 5.96159C19.5257 5.91841 19.4176 5.77441 19.4176 5.616C19.4176 5.45759 19.5257 5.31359 19.6843 5.27041L19.9942 5.184C20.5996 5.01841 21.0825 4.536 21.2483 3.93117L21.3348 3.62159C21.3781 3.46317 21.5222 3.35517 21.6808 3.35517C21.8394 3.35517 21.9835 3.46317 22.0268 3.62159L22.1133 3.93117C22.279 4.536 22.762 5.01834 23.3674 5.184L23.6773 5.27041C23.8359 5.31359 23.944 5.45759 23.944 5.616C23.944 5.77441 23.8359 5.91841 23.6773 5.96159L23.3674 6.048C22.762 6.21359 22.2791 6.696 22.1133 7.30083L22.0268 7.61041C21.9835 7.76883 21.8466 7.87683 21.6808 7.87683ZM20.7943 5.616C21.1547 5.832 21.4646 6.13441 21.6808 6.50159C21.897 6.14159 22.1998 5.832 22.5673 5.616C22.2069 5.4 21.897 5.09759 21.6808 4.73041C21.4646 5.09041 21.1618 5.4 20.7943 5.616Z" fill="#221F1F"></path><path d="M8.85828 2.34717L9.1682 2.26076L8.85828 2.17434C8.12309 1.97276 7.55372 1.39676 7.35185 0.669516L7.26534 0.35993L7.17891 0.669586C6.9771 1.404 6.40049 1.97276 5.67247 2.17441L5.36255 2.26083L5.67247 2.34724C6.40767 2.54883 6.97703 3.12483 7.17891 3.85207L7.26541 4.16166L7.35192 3.85207C7.55372 3.11759 8.12309 2.54883 8.85828 2.34717Z" fill="#F0C020"></path><path d="M7.26541 4.52159C7.10683 4.52159 6.96268 4.41359 6.91946 4.25517L6.83295 3.94559C6.66719 3.34076 6.18426 2.85841 5.57878 2.69276L5.26887 2.60634C5.11028 2.56317 5.00217 2.41917 5.00217 2.26076C5.00217 2.10234 5.11028 1.95834 5.26887 1.91517L5.57878 1.82876C6.18426 1.66317 6.66712 1.18076 6.83295 0.57593L6.91946 0.266344C6.96268 0.108 7.10683 0 7.26541 0C7.424 0 7.56815 0.108 7.61137 0.266414L7.69787 0.576C7.86364 1.18083 8.34657 1.66317 8.95204 1.82883L9.26196 1.91524C9.42054 1.95841 9.52866 2.10241 9.52866 2.26083C9.52866 2.41924 9.42054 2.56324 9.26196 2.60641L8.95204 2.69283C8.34657 2.85841 7.86371 3.34083 7.69787 3.94566L7.61137 4.25524C7.56815 4.41359 7.424 4.52159 7.26541 4.52159ZM6.37888 2.26083C6.73926 2.47683 7.04918 2.77924 7.26541 3.14641C7.48164 2.78641 7.78438 2.47683 8.15194 2.26083C7.79156 2.04483 7.48164 1.74241 7.26541 1.37524C7.04918 1.73517 6.74644 2.04483 6.37888 2.26083Z" fill="#221F1F"></path><path d="M9.39168 35.64H2.80382C1.80917 35.64 1.0019 34.8336 1.0019 33.84V26.496H11.2008V33.84C11.1936 34.8336 10.3863 35.64 9.39168 35.64Z" fill="#AFAFAF"></path><path d="M8.85828 26.496V35.64H9.39168C10.3863 35.64 11.1936 34.8336 11.1936 33.84V26.496H8.85828Z" fill="#878787"></path><path d="M9.39168 36H2.80382C1.60737 36 0.641513 35.028 0.641513 33.84V26.496C0.641513 26.2944 0.800096 26.136 1.0019 26.136H11.2008C11.4026 26.136 11.5612 26.2944 11.5612 26.496V33.84C11.554 35.028 10.5881 36 9.39168 36ZM1.36228 26.856V33.84C1.36228 34.632 2.01097 35.28 2.80382 35.28H9.39168C10.1845 35.28 10.8332 34.632 10.8332 33.84V26.856H1.36228Z" fill="#221F1F"></path><path d="M2.44344 34.2C2.24164 34.2 2.08305 34.0416 2.08305 33.84V27.936C2.08305 27.7344 2.24164 27.576 2.44344 27.576C2.64524 27.576 2.80382 27.7344 2.80382 27.936V33.84C2.80382 34.0344 2.63806 34.2 2.44344 34.2Z" fill="#EFEFEF"></path><path d="M11.2009 29.0517H1.00169V32.9541H11.2009V29.0517Z" fill="#FC5D3D"></path><path d="M11.2729 24.3H0.929821C0.612654 24.3 0.360385 24.552 0.360385 24.8688V25.9272C0.360385 26.2441 0.612654 26.4961 0.929821 26.4961H11.2729C11.59 26.4961 11.8423 26.2441 11.8423 25.9272V24.8688C11.8423 24.552 11.5828 24.3 11.2729 24.3Z" fill="#FC5D3D"></path><path d="M11.1938 29.0517H8.85836V32.9541H11.1938V29.0517Z" fill="#E53017"></path><path d="M11.2729 24.3H8.85828V26.496H11.2729C11.59 26.496 11.8423 26.244 11.8423 25.9272V24.8688C11.8423 24.552 11.5828 24.3 11.2729 24.3Z" fill="#E53017"></path><path d="M11.2729 26.856H0.929821C0.418103 26.856 0 26.4384 0 25.9272V24.8688C0 24.3577 0.418032 23.94 0.929821 23.94H11.2729C11.7846 23.94 12.2027 24.3576 12.2027 24.8688V25.9272C12.2027 26.4384 11.7846 26.856 11.2729 26.856ZM0.929821 24.66C0.814526 24.66 0.72077 24.7536 0.72077 24.8688V25.9272C0.72077 26.0424 0.814455 26.1361 0.929821 26.1361H11.2729C11.3882 26.1361 11.4819 26.0425 11.4819 25.9272V24.8688C11.4819 24.7537 11.3882 24.66 11.2729 24.66H0.929821Z" fill="#221F1F"></path><path d="M2.44344 33.3144C2.24164 33.3144 2.08305 33.156 2.08305 32.9544V29.052C2.08305 28.8504 2.24164 28.692 2.44344 28.692C2.64524 28.692 2.80382 28.8504 2.80382 29.052V32.9544C2.80382 33.1488 2.63806 33.3144 2.44344 33.3144Z" fill="#FFCBC2"></path><path d="M11.1936 33.3144H1.0019C0.800096 33.3144 0.641513 33.156 0.641513 32.9544V29.052C0.641513 28.8504 0.800096 28.692 1.0019 28.692H11.2008C11.4026 28.692 11.5612 28.8504 11.5612 29.052V32.9544C11.554 33.1488 11.3954 33.3144 11.1936 33.3144ZM1.36228 32.5944H10.8404V29.412H1.36228V32.5944Z" fill="#221F1F"></path><path d="M7.89967 15.0552V10.656C7.89967 10.2672 7.50325 10.0152 7.15005 10.1664L6.7608 10.3392C6.0256 10.6632 5.54992 11.3904 5.54992 12.1968V15.0552L7.89967 15.0552Z" fill="#FC5D3D"></path><path d="M7.89967 15.4152H5.54274C5.34094 15.4152 5.18236 15.2568 5.18236 15.0552V12.1968C5.18236 11.2463 5.74455 10.3896 6.60947 10.0079L6.99871 9.8351C7.27984 9.71269 7.59694 9.74152 7.84921 9.9071C8.10148 10.0727 8.25281 10.3535 8.25281 10.6559V15.0551C8.26006 15.2568 8.10148 15.4152 7.89967 15.4152ZM5.90313 14.6952H7.53929V10.656C7.53929 10.5768 7.48882 10.5264 7.46003 10.512C7.43118 10.4904 7.37353 10.4688 7.29427 10.4976L6.90503 10.6704C6.29955 10.9368 5.91038 11.5344 5.91038 12.1968V14.6952L5.90313 14.6952Z" fill="#221F1F"></path><path d="M6.8906 24.3H5.3049C4.7499 24.3 4.29583 23.8464 4.29583 23.292V16.1496C4.29583 15.84 4.4832 15.5592 4.76433 15.4296L7.89967 14.0472V23.292C7.89967 23.8464 7.4456 24.3 6.8906 24.3Z" fill="#AFAFAF"></path><path d="M6.8906 24.66H5.3049C4.5481 24.66 3.93544 24.048 3.93544 23.292V16.1496C3.93544 15.696 4.20214 15.2856 4.62017 15.0984L7.75552 13.716C7.86364 13.6656 7.99336 13.68 8.0943 13.7448C8.19523 13.8097 8.26006 13.9248 8.26006 14.0472V23.2921C8.26006 24.048 7.64741 24.66 6.8906 24.66ZM7.53929 14.6016L4.90848 15.7608C4.75715 15.8256 4.65621 15.9839 4.65621 16.1496V23.292C4.65621 23.652 4.94452 23.94 5.3049 23.94H6.8906C7.25098 23.94 7.53929 23.652 7.53929 23.292V14.6016Z" fill="#221F1F"></path><path d="M5.8887 23.256C5.6869 23.256 5.52832 23.0976 5.52832 22.896V18C5.52832 17.7984 5.6869 17.64 5.8887 17.64C6.0905 17.64 6.24908 17.7984 6.24908 18V22.896C6.24908 23.0904 6.09057 23.256 5.8887 23.256Z" fill="#EFEFEF"></path><path d="M5.8887 17.1288C5.6869 17.1288 5.52832 16.9704 5.52832 16.7688V16.5168C5.52832 16.3152 5.6869 16.1568 5.8887 16.1568C6.0905 16.1568 6.24908 16.3152 6.24908 16.5168V16.7688C6.24908 16.9704 6.09057 17.1288 5.8887 17.1288Z" fill="#EFEFEF"></path><path d="M7.89967 22.176H4.29583C4.09403 22.176 3.93544 22.0176 3.93544 21.816C3.93544 21.6144 4.09403 21.456 4.29583 21.456H7.89967C8.10148 21.456 8.26006 21.6144 8.26006 21.816C8.26006 22.0176 8.10148 22.176 7.89967 22.176Z" fill="#221F1F"></path><path d="M16.8444 35.64H11.6981C10.9052 35.64 10.2565 34.992 10.2565 34.2V7.632C10.2565 6.84 10.9052 6.192 11.6981 6.192H16.8444C17.6372 6.192 18.2859 6.84 18.2859 7.632V34.2C18.2859 34.992 17.6444 35.64 16.8444 35.64Z" fill="#72C1E8"></path><path d="M10.2566 10.7208C10.0548 10.7208 9.89622 10.5624 9.89622 10.3608V10.1088C9.89622 9.90724 10.0548 9.74883 10.2566 9.74883C10.4584 9.74883 10.617 9.90724 10.617 10.1088V10.3608C10.617 10.5624 10.4584 10.7208 10.2566 10.7208Z" fill="#221F1F"></path><path d="M17.2336 8.76241C16.4192 8.76241 15.6335 9.108 15.0858 9.71283C14.538 10.3177 14.2641 11.1312 14.3434 11.9448L16.1742 30.708V34.2C16.1742 34.7256 16.3183 35.2152 16.5634 35.64H16.8517C17.6446 35.64 18.2933 34.992 18.2933 34.2V8.76241H17.2336Z" fill="#2CA7DD"></path><path d="M10.2566 14.9328C10.0548 14.9328 9.89622 14.7744 9.89622 14.5728V11.7432C9.89622 11.5417 10.0548 11.3832 10.2566 11.3832C10.4584 11.3832 10.617 11.5417 10.617 11.7432V14.5728C10.617 14.7744 10.4584 14.9328 10.2566 14.9328Z" fill="#221F1F"></path><path d="M16.8444 36H11.6981C10.7034 36 9.89615 35.1936 9.89615 34.2V16.0704C9.89615 15.8688 10.0547 15.7104 10.2565 15.7104C10.4583 15.7104 10.6169 15.8688 10.6169 16.0704V34.2C10.6169 34.7976 11.0998 35.28 11.6981 35.28H16.8444C17.4426 35.28 17.9256 34.7976 17.9256 34.2V7.632C17.9256 7.03441 17.4426 6.552 16.8444 6.552H11.6981C11.0998 6.552 10.6169 7.03441 10.6169 7.632V8.82C10.6169 9.02159 10.4583 9.18 10.2565 9.18C10.0547 9.18 9.89615 9.02159 9.89615 8.82V7.632C9.89615 6.63841 10.7034 5.832 11.6981 5.832H16.8444C17.839 5.832 18.6463 6.63841 18.6463 7.632V34.2C18.6462 35.1936 17.8391 36 16.8444 36Z" fill="#221F1F"></path><path d="M11.6981 8.28717C11.4963 8.28717 11.3378 8.12876 11.3378 7.92717V7.632C11.3378 7.43041 11.4963 7.272 11.6981 7.272C11.8999 7.272 12.0585 7.43041 12.0585 7.632V7.92717C12.0585 8.12883 11.8999 8.28717 11.6981 8.28717Z" fill="#C5E5FF"></path><path d="M11.6981 34.56C11.4963 34.56 11.3378 34.4016 11.3378 34.2V9.54717C11.3378 9.34559 11.4963 9.18717 11.6981 9.18717C11.8999 9.18717 12.0585 9.34559 12.0585 9.54717V34.2C12.0585 34.4016 11.8999 34.56 11.6981 34.56Z" fill="#C5E5FF"></path><path d="M16.1741 3.18959H12.3756C11.9792 3.18959 11.6549 3.51359 11.6549 3.90959V6.192H16.8949V3.90959C16.8949 3.51359 16.5705 3.18959 16.1741 3.18959Z" fill="#AFAFAF"></path><path d="M15.4099 0.36H13.1323V3.18937H15.4099V0.36Z" fill="#AFAFAF"></path><path d="M15.4101 3.54959H13.1325C12.9307 3.54959 12.7721 3.39117 12.7721 3.18959V0.36C12.7721 0.158414 12.9307 0 13.1325 0H15.4101C15.6119 0 15.7705 0.158414 15.7705 0.36V3.18959C15.7705 3.39117 15.6119 3.54959 15.4101 3.54959ZM13.4928 2.82959H15.0497V0.72H13.4928V2.82959Z" fill="#221F1F"></path><path d="M16.7363 0.72H9.41329C9.21149 0.72 9.05291 0.561586 9.05291 0.36C9.05291 0.158414 9.21149 0 9.41329 0H16.7363C16.9381 0 17.0967 0.158414 17.0967 0.36C17.0967 0.561586 16.9382 0.72 16.7363 0.72Z" fill="#221F1F"></path><path d="M25.645 11.808L23.8286 30.492H17.6084L15.7776 11.808C15.6911 10.9512 16.3686 10.2024 17.2336 10.2024H24.1818C25.0468 10.2024 25.7243 10.944 25.645 11.808Z" fill="#FC5D3D"></path><path d="M23.8215 30.8448H17.6012C17.4138 30.8448 17.2624 30.7008 17.2408 30.5208L15.4245 11.8368C15.374 11.3257 15.547 10.8144 15.8858 10.4328C16.2317 10.0512 16.7219 9.83524 17.2336 9.83524H24.1819C24.6936 9.83524 25.191 10.0512 25.5297 10.4328C25.8757 10.8144 26.0415 11.3257 25.9911 11.8368L24.1747 30.5208C24.1601 30.708 24.0089 30.8448 23.8215 30.8448ZM17.9255 30.1248H23.4971L25.2846 11.7648C25.3134 11.448 25.2125 11.1528 25.0035 10.9152C24.7944 10.6848 24.4989 10.5552 24.189 10.5552H17.2408C16.9237 10.5552 16.6353 10.6848 16.4264 10.9152C16.2173 11.1457 16.1164 11.4481 16.1452 11.7648L17.9255 30.1248Z" fill="#221F1F"></path><path d="M18.9058 29.4048C18.7256 29.4048 18.5671 29.268 18.5455 29.0808L17.3273 16.5528C17.3057 16.3584 17.4499 16.1784 17.6517 16.1568C17.8535 16.1352 18.0265 16.2792 18.0481 16.4808L19.2662 29.0088C19.2878 29.2032 19.1437 29.3832 18.9419 29.4048C18.9346 29.4048 18.9202 29.4048 18.9058 29.4048Z" fill="#FFCBC2"></path><path d="M17.5219 15.1488C17.3417 15.1488 17.1831 15.012 17.1615 14.8248L17.0894 14.0904C17.0678 13.896 17.212 13.716 17.4138 13.6944C17.6084 13.6728 17.7886 13.8168 17.8102 14.0184L17.8823 14.7528C17.9039 14.9472 17.7597 15.1272 17.5579 15.1488C17.5436 15.1488 17.5291 15.1488 17.5219 15.1488Z" fill="#FFCBC2"></path><path d="M15.8426 12.4128H25.5874L25.645 11.8008C25.7315 10.944 25.054 10.1952 24.1891 10.1952H17.2408C16.3759 10.1952 15.6983 10.9368 15.7849 11.8008L15.8426 12.4128Z" fill="#E53017"></path><path d="M25.5801 12.7728H15.8426C15.6552 12.7728 15.5038 12.6288 15.4822 12.4488L15.4245 11.8368C15.3741 11.3257 15.5471 10.8144 15.8859 10.4328C16.2318 10.0512 16.7219 9.83524 17.2336 9.83524H24.182C24.6937 9.83524 25.191 10.0512 25.5298 10.4328C25.8758 10.8144 26.0415 11.3257 25.9911 11.8368L25.9335 12.4488C25.9261 12.636 25.7676 12.7728 25.5801 12.7728ZM16.1669 12.0528H25.2558L25.2846 11.7648C25.3134 11.448 25.2126 11.1528 25.0035 10.9152C24.7945 10.6848 24.4989 10.5552 24.189 10.5552H17.2408C16.9237 10.5552 16.6353 10.6848 16.4264 10.9152C16.2173 11.1457 16.1164 11.4481 16.1452 11.7648L16.1669 12.0528Z" fill="#221F1F"></path><path d="M22.3655 35.64H19.0572C18.2643 35.64 17.6156 34.992 17.6156 34.2V30.4848H23.8071V34.2C23.807 34.992 23.1656 35.64 22.3655 35.64Z" fill="#AFAFAF"></path><path d="M17.6156 33.2928V34.2C17.6156 34.992 18.2643 35.64 19.0572 35.64H22.3655C23.1584 35.64 23.8071 34.992 23.8071 34.2V33.2928H17.6156Z" fill="#AFAFAF"></path><path d="M22.3655 36H19.0572C18.0625 36 17.2552 35.1936 17.2552 34.2V30.4848C17.2552 30.2832 17.4138 30.1248 17.6156 30.1248H23.8071C24.0089 30.1248 24.1675 30.2832 24.1675 30.4848V34.2C24.1675 35.1936 23.3602 36 22.3655 36ZM17.976 30.8448V34.2C17.976 34.7976 18.4589 35.28 19.0572 35.28H22.3655C22.9638 35.28 23.4467 34.7976 23.4467 34.2V30.8448H17.976Z" fill="#221F1F"></path><path d="M13.1324 6.552C12.9306 6.552 12.772 6.39359 12.772 6.192V4.34883C12.772 4.14724 12.9306 3.98883 13.1324 3.98883C13.3342 3.98883 13.4928 4.14724 13.4928 4.34883V6.192C13.4928 6.38641 13.3343 6.552 13.1324 6.552Z" fill="#EFEFEF"></path><path d="M16.8949 6.552H11.6549C11.4531 6.552 11.2945 6.39359 11.2945 6.192V3.90959C11.2945 3.312 11.7774 2.82959 12.3756 2.82959H16.1741C16.7723 2.82959 17.2552 3.312 17.2552 3.90959V6.192C17.2552 6.38641 17.0895 6.552 16.8949 6.552ZM12.0152 5.832H16.5345V3.90959C16.5345 3.708 16.3759 3.54959 16.1741 3.54959H12.3756C12.1738 3.54959 12.0152 3.708 12.0152 3.90959V5.832Z" fill="#221F1F"></path><path d="M18.9058 34.56C18.704 34.56 18.5455 34.4016 18.5455 34.2V31.8816C18.5455 31.68 18.704 31.5216 18.9058 31.5216C19.1076 31.5216 19.2662 31.68 19.2662 31.8816V34.2C19.2662 34.4016 19.1076 34.56 18.9058 34.56Z" fill="#EFEFEF"></path><path d="M22.3655 36H19.0572C18.0625 36 17.2552 35.1936 17.2552 34.2V33.2928C17.2552 33.0912 17.4138 32.9328 17.6156 32.9328H23.8071C24.0089 32.9328 24.1675 33.0912 24.1675 33.2928V34.2C24.1675 35.1936 23.3602 36 22.3655 36ZM17.976 33.6528V34.2C17.976 34.7976 18.4589 35.28 19.0572 35.28H22.3655C22.9638 35.28 23.4467 34.7976 23.4467 34.2V33.6528H17.976Z" fill="#221F1F"></path></svg>