<svg xmlns="http://www.w3.org/2000/svg" width="24" height="23" viewBox="0 0 24 23" fill="none"><path d="M10.2316 9.90807H13.6647V22.2484H10.2316V9.90807Z" fill="#95D528"></path><path d="M12.4293 9.90807H13.6647V22.2484H12.4293V9.90807Z" fill="#89C627"></path><path d="M19.2778 11.8316L17.0766 13.7618C15.7533 14.9222 14.7571 16.4081 14.179 18.0551C14.3193 16.7087 14.6242 15.3818 15.0869 14.1095L16.6094 9.92331L15.2368 9.42376L13.7143 13.61C13.1968 15.0329 12.8606 16.5155 12.7137 18.0225L12.6355 18.8252C12.5884 19.3082 12.1901 19.693 11.705 19.6957C11.1845 19.6986 10.7616 19.2774 10.7616 18.7574V12.6385H9.30097V17.117C8.88407 16.2168 8.36427 15.3639 7.74956 14.5787L5.76788 12.0476L4.61791 12.9485L6.59958 15.4796C7.81556 17.0328 8.61463 18.8846 8.91036 20.835L9.1611 22.4884C9.20572 22.7826 9.45847 23 9.75589 23H14.1795C14.4741 23 14.7254 22.7865 14.7731 22.4957L15.1811 20.0099C15.5078 18.0191 16.5229 16.1903 18.0395 14.8604L20.2408 12.9302L19.2778 11.8316Z" fill="#B9EA6A"></path><path d="M19.2778 11.8316L17.0766 13.7618C15.7533 14.9222 14.7571 16.4081 14.179 18.0551C14.2486 17.3874 14.3587 16.7245 14.5085 16.0707C13.622 17.214 13.025 18.5695 12.7886 20.0099L12.3806 22.4957C12.3329 22.7866 12.0816 23 11.787 23H14.1795C14.4741 23 14.7254 22.7866 14.7731 22.4957L15.1811 20.0099C15.5078 18.0192 16.5229 16.1904 18.0395 14.8605L20.2407 12.9303L19.2778 11.8316Z" fill="#A1E42C"></path><path d="M20.1808 6.54635C20.0401 6.54415 19.901 6.54949 19.7641 6.56192C19.2149 6.61185 18.7371 6.19722 18.7035 5.64665C18.7027 5.63399 18.7019 5.62133 18.701 5.60867C18.5658 3.69337 17.022 2.1498 15.1072 2.01622C14.7759 1.9931 14.4529 2.01186 14.1427 2.06747C13.7699 2.13433 13.3926 1.97683 13.1761 1.66596C12.4734 0.656544 11.3042 -0.00313036 9.98131 1.11715e-05C8.65836 0.00310581 7.49161 0.668032 6.79341 1.68078C6.59232 1.97247 6.24282 2.13086 5.8914 2.08641C5.72912 2.06587 5.56375 2.05542 5.39584 2.05579C3.25254 2.06081 1.51907 3.8029 1.52413 5.94683C1.5247 6.19441 1.54874 6.43635 1.59379 6.67084C1.65801 7.00483 1.54424 7.34875 1.29107 7.57584C0.483984 8.29975 -0.0183251 9.35638 0.000659153 10.5298C0.0336589 12.5735 1.6769 14.2613 3.71857 14.3445C4.72225 14.3855 5.64479 14.0447 6.35452 13.4561C6.70219 13.1678 7.19934 13.1687 7.54856 13.4551C8.24676 14.0278 9.14778 14.3617 10.1274 14.3316C12.1008 14.2711 13.7304 12.7089 13.876 10.7394C13.8782 10.7095 13.8801 10.6797 13.8816 10.6499C13.9071 10.1502 14.3282 9.77022 14.8284 9.77045H14.8393C14.9707 9.77012 15.1007 9.76328 15.2288 9.7502C15.7535 9.69651 16.2168 10.1012 16.2434 10.6281C16.2449 10.6564 16.2466 10.6847 16.2486 10.7131C16.3876 12.6441 17.9574 14.192 19.8896 14.3032C22.184 14.4351 24.0755 12.5733 23.9977 10.2922C23.9274 8.23814 22.2351 6.57828 20.1808 6.54635Z" fill="#118E5E"></path><path d="M23.9975 10.2922C23.979 9.74874 23.8459 9.23339 23.6236 8.76793C22.9727 10.1492 21.5313 11.0851 19.8817 10.9902C17.9495 10.8791 16.3797 9.33111 16.2407 7.40019C16.2387 7.37178 16.2369 7.34346 16.2355 7.31518C16.2088 6.78825 15.7456 6.38355 15.2209 6.43724C15.0928 6.45032 14.9628 6.45722 14.8313 6.4575C14.8277 6.4575 14.8241 6.4575 14.8205 6.4575C14.3203 6.45726 13.8991 6.8372 13.8737 7.33694C13.8722 7.36667 13.8703 7.39649 13.8681 7.4264C13.7226 9.39591 12.0929 10.9581 10.1195 11.0187C9.13986 11.0487 8.23879 10.7148 7.54064 10.1422C7.19137 9.85574 6.69427 9.85485 6.3466 10.1432C5.63687 10.7317 4.71433 11.0725 3.71065 11.0316C2.23724 10.9715 0.971668 10.0756 0.368719 8.81351C0.123846 9.33294 -0.0094189 9.91529 0.000518529 10.5298C0.0335183 12.5734 1.67676 14.2613 3.71843 14.3445C4.72211 14.3855 5.64465 14.0447 6.35438 13.4561C6.70205 13.1678 7.1992 13.1687 7.54842 13.4551C8.24662 14.0278 9.14764 14.3617 10.1273 14.3316C12.1007 14.2711 13.7303 12.7089 13.8759 10.7394C13.8781 10.7095 13.88 10.6797 13.8815 10.6499C13.9069 10.1502 14.3281 9.77022 14.8283 9.77045H14.8391C14.9706 9.77012 15.1005 9.76328 15.2286 9.7502C15.7533 9.69656 16.2166 10.1012 16.2432 10.6281C16.2447 10.6564 16.2464 10.6847 16.2485 10.7131C16.3874 12.6441 17.9572 14.192 19.8894 14.3032C22.1838 14.4352 24.0753 12.5734 23.9975 10.2922Z" fill="#017B4F"></path><path d="M6.53977 6.29282C6.80499 6.29282 7.02 6.07775 7.02 5.81245C7.02 5.54715 6.80499 5.33208 6.53977 5.33208C6.27455 5.33208 6.05954 5.54715 6.05954 5.81245C6.05954 6.07775 6.27455 6.29282 6.53977 6.29282Z" fill="#017B4F"></path><path d="M7.94137 5.0326C8.20659 5.0326 8.4216 4.81753 8.4216 4.55223C8.4216 4.28693 8.20659 4.07186 7.94137 4.07186C7.67615 4.07186 7.46114 4.28693 7.46114 4.55223C7.46114 4.81753 7.67615 5.0326 7.94137 5.0326Z" fill="#017B4F"></path><path d="M8.4216 8.39751C8.68682 8.39751 8.90183 8.18244 8.90183 7.91714C8.90183 7.65183 8.68682 7.43676 8.4216 7.43676C8.15638 7.43676 7.94137 7.65183 7.94137 7.91714C7.94137 8.18244 8.15638 8.39751 8.4216 8.39751Z" fill="#017B4F"></path><path d="M9.68881 8.39751C9.95403 8.39751 10.169 8.18244 10.169 7.91714C10.169 7.65183 9.95403 7.43676 9.68881 7.43676C9.42359 7.43676 9.20858 7.65183 9.20858 7.91714C9.20858 8.18244 9.42359 8.39751 9.68881 8.39751Z" fill="#017B4F"></path><path d="M11.787 6.60552C12.0522 6.60552 12.2672 6.39045 12.2672 6.12515C12.2672 5.85985 12.0522 5.64478 11.787 5.64478C11.5218 5.64478 11.3068 5.85985 11.3068 6.12515C11.3068 6.39045 11.5218 6.60552 11.787 6.60552Z" fill="#017B4F"></path><path d="M20.8062 9.46057C21.0714 9.46057 21.2864 9.2455 21.2864 8.98019C21.2864 8.71489 21.0714 8.49982 20.8062 8.49982C20.5409 8.49982 20.3259 8.71489 20.3259 8.98019C20.3259 9.2455 20.5409 9.46057 20.8062 9.46057Z" fill="#017B4F"></path><path d="M2.62278 9.46057C2.88801 9.46057 3.10301 9.2455 3.10301 8.98019C3.10301 8.71489 2.88801 8.49982 2.62278 8.49982C2.35756 8.49982 2.14255 8.71489 2.14255 8.98019C2.14255 9.2455 2.35756 9.46057 2.62278 9.46057Z" fill="#017B4F"></path><path d="M4.61791 12.5989C4.88313 12.5989 5.09814 12.3838 5.09814 12.1185C5.09814 11.8532 4.88313 11.6382 4.61791 11.6382C4.35268 11.6382 4.13768 11.8532 4.13768 12.1185C4.13768 12.3838 4.35268 12.5989 4.61791 12.5989Z" fill="#118E5E"></path></svg>