<svg xmlns="http://www.w3.org/2000/svg" width="26" height="26" viewBox="0 0 26 26" fill="none"><path d="M0.355469 21.5952H25.6445V25.6445H0.355469V21.5952Z" fill="#64B4FF"></path><path d="M0.355469 10.0553H8.78516V21.5954L0.355469 21.5952V10.0553Z" fill="#FFF069"></path><path d="M17.2148 21.5952L8.78516 21.5954V6.85547L13 2.38672L17.2148 6.85547V21.5952Z" fill="#5972A4"></path><path d="M13 0.355469L8.78516 4.82422V6.85547L13 2.38672L17.2148 6.85547V4.82422L13 0.355469Z" fill="#FFF069"></path><path d="M17.2148 7.12258H25.6445V21.5952H17.2148V7.12258Z" fill="#72D98B"></path><path d="M24.0067 5.66272L21.4297 3.63147L18.8524 5.66272V7.12258H24.0067V5.66272Z" fill="#5972A4"></path><path d="M18.8398 8.74758H24.0195V11.0201H18.8398V8.74758Z" fill="#FAFAFA"></path><path d="M18.8398 12.6451H24.0195V14.9177H18.8398V12.6451Z" fill="#FAFAFA"></path><path d="M22.6484 21.5952H20.2109V17.7994C20.2109 17.4762 20.3393 17.1662 20.5679 16.9377C20.7965 16.7091 21.1065 16.5807 21.4297 16.5807C21.7529 16.5807 22.0629 16.7091 22.2915 16.9377C22.52 17.1662 22.6484 17.4762 22.6484 17.7994V21.5952Z" fill="#FFF069"></path><path d="M14.2188 21.5952H11.7812V17.7994C11.7812 17.4762 11.9097 17.1662 12.1382 16.9377C12.3668 16.7091 12.6768 16.5807 13 16.5807C13.3232 16.5807 13.6332 16.7091 13.8618 16.9377C14.0903 17.1662 14.2188 17.4762 14.2188 17.7994V21.5952Z" fill="#FAFAFA"></path><path d="M14.1934 6.27209H11.8066C11.4701 6.27209 11.1973 6.54492 11.1973 6.88147V7.36389C11.1973 7.70044 11.4701 7.97327 11.8066 7.97327H14.1934C14.5299 7.97327 14.8027 7.70044 14.8027 7.36389V6.88147C14.8027 6.54492 14.5299 6.27209 14.1934 6.27209Z" fill="#72D98B"></path><path d="M14.1934 9.44592H11.8066C11.4701 9.44592 11.1973 9.71875 11.1973 10.0553V10.5377C11.1973 10.8743 11.4701 11.1471 11.8066 11.1471H14.1934C14.5299 11.1471 14.8027 10.8743 14.8027 10.5377V10.0553C14.8027 9.71875 14.5299 9.44592 14.1934 9.44592Z" fill="#72D98B"></path><path d="M14.1934 12.6198H11.8066C11.4701 12.6198 11.1973 12.8926 11.1973 13.2291V13.7115C11.1973 14.0481 11.4701 14.3209 11.8066 14.3209H14.1934C14.5299 14.3209 14.8027 14.0481 14.8027 13.7115V13.2291C14.8027 12.8926 14.5299 12.6198 14.1934 12.6198Z" fill="#72D98B"></path><path d="M3.11025 17.1647H6.03017V21.5954H3.11025V17.1647Z" fill="#5972A4"></path><path d="M3.93555 12.3906H5.20508C5.42853 12.3906 5.64979 12.4346 5.85623 12.5202C6.06266 12.6057 6.25023 12.7311 6.4082 12.8891C6.56618 13.0471 6.69147 13.2347 6.77693 13.4412C6.86239 13.6477 6.90633 13.869 6.90625 14.0924V14.778H2.23437V14.0924C2.23429 13.869 2.27824 13.6477 2.36369 13.4412C2.44915 13.2347 2.57444 13.0471 2.73242 12.8891C2.8904 12.7311 3.07796 12.6057 3.2844 12.5202C3.49083 12.4346 3.71209 12.3906 3.93555 12.3906Z" fill="#FFC362"></path><path d="M7.47744 24.3496H2.23438C2.1401 24.3496 2.04968 24.3122 1.98302 24.2455C1.91636 24.1788 1.87891 24.0884 1.87891 23.9941C1.87891 23.8999 1.91636 23.8095 1.98302 23.7428C2.04968 23.6761 2.1401 23.6387 2.23438 23.6387H7.47744C7.57171 23.6387 7.66213 23.6761 7.72879 23.7428C7.79546 23.8095 7.83291 23.8999 7.83291 23.9941C7.83291 24.0884 7.79546 24.1788 7.72879 24.2455C7.66213 24.3122 7.57171 24.3496 7.47744 24.3496Z" fill="#2878E6"></path><path d="M15.247 23.4737H9.72461C9.63033 23.4737 9.53992 23.4363 9.47326 23.3696C9.40659 23.303 9.36914 23.2125 9.36914 23.1183C9.36914 23.024 9.40659 22.9336 9.47326 22.8669C9.53992 22.8002 9.63033 22.7628 9.72461 22.7628H15.247C15.3412 22.7628 15.4317 22.8002 15.4983 22.8669C15.565 22.9336 15.6024 23.024 15.6024 23.1183C15.6024 23.2125 15.565 23.303 15.4983 23.3696C15.4317 23.4363 15.3412 23.4737 15.247 23.4737Z" fill="#2878E6"></path><path d="M22.0645 24.3496H17.0751C16.9808 24.3496 16.8904 24.3122 16.8237 24.2455C16.7571 24.1788 16.7196 24.0884 16.7196 23.9941C16.7196 23.8999 16.7571 23.8095 16.8237 23.7428C16.8904 23.6761 16.9808 23.6387 17.0751 23.6387H22.0645C22.1587 23.6387 22.2491 23.6761 22.3158 23.7428C22.3825 23.8095 22.4199 23.8999 22.4199 23.9941C22.4199 24.0884 22.3825 24.1788 22.3158 24.2455C22.2491 24.3122 22.1587 24.3496 22.0645 24.3496Z" fill="#2878E6"></path></svg>