<svg xmlns="http://www.w3.org/2000/svg" width="30" height="16" viewBox="0 0 30 16" fill="none"><path d="M29.1794 8.25913C28.7348 7.1941 27.7573 6.39682 26.55 6.25565L21.9715 5.72148L19.529 1.66813C18.9046 0.631596 17.7979 0 16.6063 0H8.72006C6.6651 0 4.86263 1.40171 4.31742 3.42507L4.25575 3.65372C4.0831 4.29592 3.75143 4.86787 3.30681 5.3245C2.8622 5.78179 2.30335 6.12311 1.67635 6.30403C0.998723 6.49888 0.530095 7.13048 0.530095 7.8489V12.3478L3.02317 11.7525C3.07575 11.6279 3.13546 11.5066 3.20167 11.3886C3.82412 10.2878 4.98271 9.60384 6.22633 9.60384C7.46995 9.60384 8.62789 10.2878 9.2497 11.3886C9.3159 11.5066 9.37626 11.6279 9.42819 11.7525H20.0132C20.0645 11.6292 20.1236 11.5092 20.1891 11.3926C20.8109 10.2891 21.9708 9.60384 23.2164 9.60384C24.46 9.60384 25.6179 10.2878 26.2397 11.3886C26.3059 11.5066 26.3663 11.6279 26.4182 11.7525H29.1976L29.2151 11.7545L29.4176 9.93853C29.426 9.8643 29.4319 9.79074 29.4351 9.71717C29.4591 9.20288 29.3663 8.70715 29.1794 8.25913Z" fill="#008DB3"></path><path d="M30 12.5525C30 12.9935 29.6499 13.351 29.218 13.351H26.6999C26.7032 13.29 26.7051 13.2284 26.7051 13.1668C26.7051 12.6783 26.6071 12.1958 26.4182 11.7525L29.2185 11.7541C29.6501 11.7543 30 12.1117 30 12.5525Z" fill="#CCCCCC"></path><path d="M25.9911 13.1668C25.9911 13.2284 25.9892 13.29 25.9853 13.351C25.8925 14.8296 24.6885 16 23.2164 16C21.7436 16 20.5396 14.8296 20.4468 13.351C20.4429 13.29 20.441 13.2284 20.441 13.1668C20.441 12.6531 20.5747 12.1713 20.8083 11.7558C21.2873 10.9055 22.1863 10.3329 23.2164 10.3329C24.2445 10.3329 25.1422 10.9042 25.6212 11.7525C25.8568 12.1687 25.9911 12.6518 25.9911 13.1668ZM24.3542 13.1668C24.3542 12.5259 23.844 12.0043 23.2164 12.0043C22.5881 12.0043 22.0779 12.5259 22.0779 13.1668C22.0779 13.8076 22.5881 14.3292 23.2164 14.3292C23.844 14.3292 24.3542 13.8076 24.3542 13.1668Z" fill="#666666"></path><path d="M23.2164 12.0043C23.844 12.0043 24.3542 12.5259 24.3542 13.1668C24.3542 13.8076 23.844 14.3292 23.2164 14.3292C22.5881 14.3292 22.0779 13.8076 22.0779 13.1668C22.0779 12.5259 22.5881 12.0043 23.2164 12.0043Z" fill="#E6E6E6"></path><path d="M19.727 13.1668C19.727 13.2284 19.7289 13.2907 19.7322 13.351H9.70989C9.71313 13.2894 9.71508 13.2277 9.71508 13.1668C9.71508 12.6783 9.61707 12.1958 9.42819 11.7525H20.0132C19.825 12.1972 19.727 12.679 19.727 13.1668Z" fill="#CCCCCC"></path><path d="M7.52707 1.85569V5.72148H5.35463C5.35463 5.72148 5.60777 4.67236 5.76809 4.07854L5.82975 3.84989C5.8622 3.72861 5.9018 3.6113 5.94788 3.49731C6.24775 2.75371 6.82153 2.16917 7.52707 1.85569Z" fill="#76CDCE"></path><path d="M12.9831 1.60119V5.72148H8.50067V1.60981C8.57337 1.60384 8.64671 1.60119 8.72006 1.60119H12.9831Z" fill="#76CDCE"></path><path d="M20.1301 5.72148H13.9567V1.60119H16.6063C17.2482 1.60119 17.857 1.94847 18.1932 2.50717L20.1301 5.72148Z" fill="#76CDCE"></path><path d="M8.99526 13.351C8.90244 14.8296 7.69842 16 6.22633 16C4.75359 16 3.54957 14.8296 3.45675 13.351C3.45286 13.29 3.45091 13.2284 3.45091 13.1668C3.45091 12.6518 3.58527 12.1687 3.82023 11.7525C4.29989 10.9042 5.19756 10.3329 6.22633 10.3329C7.25446 10.3329 8.15212 10.9042 8.63113 11.7525C8.86675 12.1687 9.0011 12.6518 9.0011 13.1668C9.0011 13.2284 8.99916 13.29 8.99526 13.351ZM7.3648 13.1668C7.3648 12.5259 6.85398 12.0043 6.22633 12.0043C5.59803 12.0043 5.08786 12.5259 5.08786 13.1668C5.08786 13.8076 5.59803 14.3292 6.22633 14.3292C6.85398 14.3292 7.3648 13.8076 7.3648 13.1668Z" fill="#666666"></path><path d="M6.22633 12.0043C6.85398 12.0043 7.3648 12.5259 7.3648 13.1668C7.3648 13.8076 6.85398 14.3292 6.22633 14.3292C5.59803 14.3292 5.08786 13.8076 5.08786 13.1668C5.08786 12.5259 5.59803 12.0043 6.22633 12.0043Z" fill="#E6E6E6"></path><path d="M2.73693 13.1668C2.73693 13.2284 2.73888 13.29 2.74212 13.351H0.782778C0.350433 13.351 0 12.9932 0 12.5517C0 12.1103 0.350433 11.7525 0.782778 11.7525H3.02317C2.83494 12.1965 2.73693 12.6783 2.73693 13.1668Z" fill="#CCCCCC"></path><path d="M16.6315 7.90264H15.6086C15.3935 7.90264 15.2191 7.72463 15.2191 7.505C15.2191 7.28536 15.3935 7.10735 15.6086 7.10735H16.6315C16.8465 7.10735 17.0209 7.28536 17.0209 7.505C17.0209 7.72463 16.8466 7.90264 16.6315 7.90264Z" fill="#CCCCCC"></path><path d="M9.60733 7.90264H8.5844C8.36936 7.90264 8.19496 7.72463 8.19496 7.505C8.19496 7.28536 8.36936 7.10735 8.5844 7.10735H9.60733C9.82237 7.10735 9.99678 7.28536 9.99678 7.505C9.99678 7.72463 9.82237 7.90264 9.60733 7.90264Z" fill="#CCCCCC"></path><path d="M29.4351 9.71717H28.653C27.8644 9.71717 27.225 9.06437 27.225 8.25913H29.1794C29.3942 8.73863 29.4916 9.21084 29.4351 9.71717Z" fill="white"></path><path d="M12.9831 1.60981V5.72148H12.5268L8.50067 1.60981H12.9831Z" fill="#96E0DE"></path><path d="M20.1301 5.72148H17.992L13.9567 1.60119H16.6063C17.2482 1.60119 17.857 1.94847 18.1932 2.50717L20.1301 5.72148Z" fill="#96E0DE"></path><path d="M7.52707 1.85569V5.10977L5.94788 3.49731C6.24775 2.75371 6.82153 2.16917 7.52707 1.85569Z" fill="#96E0DE"></path></svg>