<svg xmlns="http://www.w3.org/2000/svg" width="17" height="27" viewBox="0 0 17 27" fill="none"><g opacity="0.5"><path d="M13.6311 0.210938H3.36881C1.98424 0.210938 0.861816 1.33336 0.861816 2.71793V24.2821C0.861816 25.6666 1.98424 26.7891 3.36881 26.7891H13.6311C15.0157 26.7891 16.1381 25.6666 16.1381 24.2821V2.71793C16.1381 1.33336 15.0157 0.210938 13.6311 0.210938Z" fill="#43567C"></path><path d="M14.8472 3.51844V22.5703C14.8473 22.6267 14.8364 22.6825 14.815 22.7347C14.7935 22.7868 14.762 22.8342 14.7223 22.8742C14.6825 22.9142 14.6352 22.9459 14.5832 22.9676C14.5312 22.9893 14.4754 23.0005 14.419 23.0006H2.58117C2.52479 23.0005 2.46898 22.9893 2.41695 22.9676C2.36491 22.9459 2.31765 22.9142 2.27788 22.8742C2.23812 22.8342 2.20661 22.7868 2.18518 22.7347C2.16375 22.6825 2.1528 22.6267 2.15297 22.5703V3.51844C2.1528 3.46206 2.16375 3.4062 2.18518 3.35405C2.20661 3.30191 2.23812 3.2545 2.27788 3.21454C2.31765 3.17457 2.36491 3.14284 2.41695 3.12115C2.46898 3.09946 2.52479 3.08824 2.58117 3.08812H14.419C14.4754 3.08824 14.5312 3.09946 14.5832 3.12115C14.6352 3.14284 14.6825 3.17457 14.7223 3.21454C14.762 3.2545 14.7935 3.30191 14.815 3.35405C14.8364 3.4062 14.8473 3.46206 14.8472 3.51844Z" fill="#8CC0F3"></path><path d="M10.2719 1.80795H6.72925C6.67331 1.80795 6.61966 1.78572 6.5801 1.74616C6.54054 1.7066 6.51832 1.65295 6.51832 1.59701C6.51832 1.54106 6.54054 1.48741 6.5801 1.44785C6.61966 1.40829 6.67331 1.38607 6.72925 1.38607H10.2719C10.3279 1.38607 10.3815 1.40829 10.4211 1.44785C10.4607 1.48741 10.4829 1.54106 10.4829 1.59701C10.4829 1.65295 10.4607 1.7066 10.4211 1.74616C10.3815 1.78572 10.3279 1.80795 10.2719 1.80795Z" fill="#2F3A5A"></path><path d="M9.86125 24.1338H7.13868C7.03221 24.1338 6.94589 24.2201 6.94589 24.3266V25.3714C6.94589 25.4778 7.03221 25.5641 7.13868 25.5641H9.86125C9.96773 25.5641 10.0541 25.4778 10.0541 25.3714V24.3266C10.0541 24.2201 9.96773 24.1338 9.86125 24.1338Z" fill="#2F3A5A"></path><path d="M13.6828 3.08812L2.15297 22.3784V19.3662L11.8814 3.08812H13.6828Z" fill="#E1E6E9"></path><path d="M14.8472 4.01203V5.51602L4.39734 23.0006H3.49875L14.8472 4.01203Z" fill="#E1E6E9"></path></g></svg>