<svg xmlns="http://www.w3.org/2000/svg" width="25" height="29" viewBox="0 0 25 29" fill="none"><path d="M18.6127 15.936L13.0356 17.4115C12.6909 17.5027 12.3292 17.5045 11.9837 17.4169L6.10024 15.9242C5.16722 15.6875 4.51244 14.8348 4.51244 13.8564V7.31637C4.51238 3.27563 7.7319 0 11.7033 0H12.9892C16.9607 0 20.1802 3.27563 20.1802 7.31637V13.8735C20.1802 14.844 19.5358 15.6918 18.6127 15.936Z" fill="#FD9727"></path><path d="M12.9892 0H11.7033C11.3804 0 11.0624 0.0220332 10.7507 0.0640038C14.2718 0.538255 16.989 3.60426 16.989 7.31637V13.8735C16.989 14.844 16.3446 15.6919 15.4215 15.9361L10.8813 17.1372L11.9837 17.4169C12.3292 17.5045 12.6909 17.5027 13.0356 17.4115L18.6127 15.936C19.5358 15.6918 20.1802 14.844 20.1802 13.8735V7.31637C20.1802 3.27563 16.9607 0 12.9892 0Z" fill="#FF6D3A"></path><path d="M4.84523 11.8839H6.37112V8.09348H4.84523C4.39692 8.09348 4.03351 8.46323 4.03351 8.91935V11.058C4.03351 11.5142 4.39692 11.8839 4.84523 11.8839Z" fill="#3D6687"></path><path d="M20.1547 11.8839H18.6288V8.09348H20.1547C20.603 8.09348 20.9664 8.46323 20.9664 8.91935V11.058C20.9664 11.5142 20.603 11.8839 20.1547 11.8839Z" fill="#3D6687"></path><path d="M15.9455 18.4976C15.4118 18.3885 15.0279 17.9115 15.0279 17.3577V14.7367H9.97214V17.3577C9.97214 17.9115 9.58819 18.3885 9.05455 18.4976L8.43862 18.6236V22.8325H16.5614V18.6236L15.9455 18.4976Z" fill="#FED9A8"></path><path d="M21.2086 19.9108L16.1383 18.3023C15.981 18.2523 15.8093 18.2929 15.6897 18.4083L12.5 21.4838L9.31029 18.4083C9.1906 18.293 9.01898 18.2524 8.8616 18.3024L3.79135 19.9108C1.54343 20.5842 0 22.6837 0 25.0679V28.5046C0 28.7782 0.218001 29 0.486883 29H24.5131C24.782 29 25 28.7782 25 28.5046V25.0679C24.9999 22.6836 23.4565 20.5842 21.2086 19.9108Z" fill="#FF4C4C"></path><path d="M21.2086 19.9108L16.1383 18.3023C15.981 18.2523 15.8093 18.2929 15.6897 18.4083L15.0934 18.9832L18.0174 19.9108C20.2653 20.5842 21.8088 22.6836 21.8088 25.0678V28.9999L24.5131 29C24.782 29 25 28.7781 25 28.5046V25.0678C24.9999 22.6836 23.4565 20.5842 21.2086 19.9108Z" fill="#EF2929"></path><path d="M12.5 16.9159C9.01998 16.9159 6.19894 14.0456 6.19894 10.5049V8.70327C6.19894 5.16261 9.02003 2.2923 12.5 2.2923C15.9799 2.2923 18.801 5.16261 18.801 8.70327V10.5049C18.801 14.0457 15.98 16.9159 12.5 16.9159Z" fill="#FED9A8"></path><path d="M15.6098 3.12656V10.5049C15.6098 13.4847 13.6116 15.9894 10.9043 16.7083C11.414 16.8436 11.9486 16.9159 12.4999 16.9159C15.9799 16.9159 18.801 14.0456 18.801 10.5049V8.70327C18.801 6.31332 17.5155 4.22906 15.6098 3.12656Z" fill="#F4C892"></path><path d="M9.31029 18.4083L12.5 21.4838L10.5328 22.1656C10.0509 22.3327 9.51744 22.1875 9.18186 21.7978L6.74878 18.9726L8.8616 18.3024C9.01903 18.2524 9.19066 18.293 9.31029 18.4083Z" fill="#D4145A"></path><path d="M15.6897 18.4083L12.5 21.4838L14.2828 22.1018C14.8763 22.3075 15.5332 22.1286 15.9463 21.6489L18.2512 18.9726L16.1383 18.3023C15.9809 18.2523 15.8093 18.2929 15.6897 18.4083Z" fill="#D4145A"></path><path d="M8.73612 26.4561H5.49294C5.31285 26.4561 5.16689 26.3076 5.16689 26.1244V24.6628C5.16689 24.4796 5.31285 24.3311 5.49294 24.3311H8.73612C8.91621 24.3311 9.06217 24.4796 9.06217 24.6628V26.1244C9.06223 26.3075 8.91621 26.4561 8.73612 26.4561Z" fill="#EDA558"></path><path d="M20.1802 8.66776C20.1802 8.66776 17.4616 8.44822 16.5314 5.90398C16.5314 5.90398 9.95967 11.2571 4.51238 8.66776L4.51244 7.31637C4.51244 3.27563 7.7319 0 11.7033 0H12.9892C16.9607 0 20.1802 3.27563 20.1802 7.31637L20.1802 8.66776Z" fill="#FD9727"></path><path d="M12.9892 0H11.7033C11.3804 0 11.0624 0.0220332 10.7507 0.0640038C14.0987 0.514919 16.7196 3.30917 16.9693 6.77392C18.1157 8.50072 20.1802 8.66776 20.1802 8.66776L20.1802 7.31637C20.1802 3.27563 16.9607 0 12.9892 0Z" fill="#FF6D3A"></path><path d="M21.757 24.1196C21.5193 24.1196 21.3265 24.3157 21.3265 24.5576V28.9999H22.1875V24.5576C22.1876 24.3157 21.9948 24.1196 21.757 24.1196Z" fill="#D4145A"></path><path d="M3.2429 24.1196C3.00514 24.1196 2.81235 24.3157 2.81235 24.5576V28.9999H3.67339V24.5576C3.67339 24.3157 3.48066 24.1196 3.2429 24.1196Z" fill="#D4145A"></path><path d="M18.9766 11.8839V12.6829C18.9766 13.3717 18.4923 13.9562 17.8251 14.0725L13.4927 14.8284C13.2586 14.8692 13.1013 15.0955 13.1414 15.3337C13.1774 15.5469 13.3592 15.6975 13.5649 15.6975C13.589 15.6975 13.6135 15.6954 13.6381 15.6911L17.9704 14.9353C19.0519 14.7465 19.8368 13.7993 19.8368 12.6829V11.8839H18.9766Z" fill="#3D6687"></path><path d="M13.6233 16.1189C13.2254 16.1189 12.8735 15.8276 12.8039 15.4151C12.7262 14.9541 13.0306 14.5163 13.4836 14.4372L14.8871 14.1923C15.3403 14.1131 15.7705 14.4228 15.8482 14.8838C15.9259 15.3448 15.6216 15.7826 15.1685 15.8617L13.765 16.1066C13.7174 16.1148 13.67 16.1189 13.6233 16.1189Z" fill="#D4145A"></path></svg>