<svg xmlns="http://www.w3.org/2000/svg" width="25" height="23" viewBox="0 0 25 23" fill="none"><path d="M22.6487 3.46245H2.35148C1.05489 3.46245 0 4.51642 0 5.81189V11.2526C0 11.2557 0.000390627 11.2586 0.000439456 11.2617C0.000634769 11.2696 0.00092774 11.2775 0.00161134 11.2854C0.00205079 11.2908 0.00278322 11.296 0.00351565 11.3012C0.00439456 11.3077 0.00522464 11.3141 0.00644535 11.3205C0.0075684 11.3268 0.00908208 11.333 0.0105469 11.3392C0.0117676 11.3443 0.013086 11.3496 0.0145509 11.3547C0.016504 11.3614 0.0186525 11.368 0.0209474 11.3746C0.0225587 11.3792 0.0242189 11.3839 0.0260255 11.3885C0.0286134 11.395 0.031299 11.4013 0.0342287 11.4076C0.0363772 11.4122 0.0385744 11.4169 0.0409182 11.4215C0.0438967 11.4273 0.0470218 11.4329 0.0502444 11.4384C0.0531741 11.4435 0.0561527 11.4484 0.0593265 11.4533C0.0624027 11.458 0.0656254 11.4627 0.0688969 11.4674C0.0727055 11.4727 0.0766118 11.478 0.0807134 11.4831C0.0838384 11.487 0.087061 11.4908 0.0903326 11.4946C0.0949224 11.5 0.0997076 11.5053 0.104639 11.5103C0.10796 11.5138 0.111378 11.5171 0.114844 11.5204C0.119971 11.5253 0.125196 11.5301 0.130567 11.5347C0.134571 11.5381 0.138673 11.5413 0.142823 11.5445C0.147901 11.5485 0.153077 11.5524 0.158399 11.5562C0.163624 11.5599 0.169093 11.5633 0.174562 11.5667C0.179054 11.5695 0.183644 11.5724 0.188282 11.575C0.195167 11.5789 0.202247 11.5824 0.209376 11.5859C0.212159 11.5872 0.21465 11.5888 0.217482 11.5901C0.404934 11.6752 4.87669 13.6796 10.7443 14.0416C10.7522 14.0421 10.7599 14.0423 10.7676 14.0423C10.7752 14.0423 10.7827 14.0417 10.7902 14.0413L14.2174 14.0416C14.2223 14.0418 14.2273 14.0423 14.2323 14.0423C14.24 14.0423 14.2478 14.0421 14.2556 14.0416C20.1232 13.6795 24.5949 11.6752 24.7824 11.5901C24.7852 11.5888 24.7878 11.5872 24.7905 11.5859C24.7977 11.5824 24.8047 11.5788 24.8116 11.575C24.8164 11.5723 24.8208 11.5695 24.8253 11.5667C24.8309 11.5633 24.8363 11.5599 24.8415 11.5562C24.8469 11.5524 24.852 11.5485 24.8571 11.5445C24.8612 11.5413 24.8653 11.5381 24.8693 11.5347C24.8748 11.5301 24.8799 11.5253 24.885 11.5204C24.8885 11.5171 24.8919 11.5138 24.8953 11.5103C24.9002 11.5053 24.9049 11.5 24.9096 11.4946C24.9128 11.4908 24.9161 11.487 24.9192 11.4831C24.9233 11.478 24.9271 11.4727 24.931 11.4674C24.9343 11.4628 24.9375 11.458 24.9406 11.4533C24.9437 11.4484 24.9467 11.4434 24.9497 11.4384C24.9529 11.4328 24.956 11.4273 24.959 11.4215C24.9614 11.4169 24.9636 11.4122 24.9657 11.4076C24.9687 11.4013 24.9714 11.3949 24.9739 11.3885C24.9758 11.3839 24.9774 11.3793 24.979 11.3746C24.9813 11.368 24.9834 11.3614 24.9854 11.3547C24.9868 11.3495 24.9882 11.3443 24.9894 11.3392C24.9909 11.333 24.9924 11.3268 24.9935 11.3205C24.9946 11.3141 24.9956 11.3076 24.9964 11.3012C24.9972 11.296 24.9979 11.2908 24.9984 11.2854C24.9991 11.2776 24.9994 11.2697 24.9995 11.2617C24.9996 11.2586 25 11.2557 25 11.2526V5.81189C25.0001 4.51637 23.9453 3.46245 22.6487 3.46245Z" fill="#FF6B6B"></path><path d="M14.2556 14.0416C14.2478 14.0421 14.24 14.0423 14.2323 14.0423C14.2273 14.0423 14.2223 14.0418 14.2174 14.0416L10.7902 14.0413C10.7827 14.0417 10.7752 14.0423 10.7676 14.0423C10.7599 14.0423 10.7522 14.0421 10.7443 14.0416C5.62845 13.726 1.57428 12.1622 0.495022 11.7102V21.1452C0.495022 22.168 1.32779 23 2.35148 23H22.6487C23.6724 23 24.5051 22.168 24.5051 21.1452V11.7101C23.4259 12.1621 19.3716 13.7259 14.2556 14.0416Z" fill="#EE5253"></path><path d="M23.0199 12.2722V21.1452C23.0199 22.168 22.1871 23 21.1634 23H22.6487C23.6724 23 24.5051 22.168 24.5051 21.1452V11.7101C24.214 11.832 23.7062 12.0349 23.0199 12.2722Z" fill="#D83941"></path><path d="M15.223 0H9.7773C8.75362 0 7.92085 0.832095 7.92085 1.85485C7.92085 2.0597 8.08711 2.22581 8.29214 2.22581H16.7082C16.9133 2.22581 17.0795 2.0597 17.0795 1.85485C17.0795 0.832095 16.2467 0 15.223 0Z" fill="#576574"></path><path d="M8.29214 2.22581C8.08711 2.22581 7.92085 2.0597 7.92085 1.85485V3.4624H10.1486V2.22587L8.29214 2.22581Z" fill="#CAD0D7"></path><path d="M17.0795 1.85485C17.0795 2.0597 16.9133 2.22581 16.7082 2.22581L14.8517 2.22586V3.46245H17.0795V1.85485Z" fill="#CAD0D7"></path><path d="M14.2327 16.5699H10.7674C10.5624 16.5699 10.3961 16.4038 10.3961 16.1989V11.2528C10.3961 11.0479 10.5624 10.8818 10.7674 10.8818H14.2327C14.4378 10.8818 14.604 11.0479 14.604 11.2528V16.1989C14.604 16.4038 14.4378 16.5699 14.2327 16.5699Z" fill="#FECA57"></path><path d="M12.5001 15.0861C12.295 15.0861 12.1288 14.92 12.1288 14.7151V12.7367C12.1288 12.5318 12.295 12.3657 12.5001 12.3657C12.7051 12.3657 12.8714 12.5318 12.8714 12.7367V14.7151C12.8714 14.92 12.7051 15.0861 12.5001 15.0861Z" fill="#FF9F43"></path><path d="M22.6487 3.46245H21.1634C22.4599 3.46245 23.5148 4.51642 23.5148 5.81189V12.0962C24.2761 11.8176 24.7257 11.6158 24.7824 11.5901C24.7852 11.5888 24.7878 11.5872 24.7905 11.5859C24.7977 11.5824 24.8047 11.5788 24.8116 11.575C24.8164 11.5723 24.8208 11.5695 24.8253 11.5667C24.8309 11.5633 24.8363 11.5599 24.8415 11.5562C24.8469 11.5524 24.852 11.5485 24.8571 11.5445C24.8612 11.5413 24.8653 11.5381 24.8693 11.5347C24.8748 11.5301 24.8799 11.5253 24.885 11.5204C24.8885 11.5171 24.8919 11.5138 24.8953 11.5103C24.9002 11.5053 24.9049 11.5 24.9096 11.4946C24.9128 11.4908 24.9161 11.487 24.9192 11.4831C24.9233 11.478 24.9271 11.4727 24.931 11.4674C24.9343 11.4628 24.9375 11.458 24.9406 11.4533C24.9437 11.4484 24.9467 11.4434 24.9497 11.4384C24.9529 11.4328 24.956 11.4273 24.959 11.4215C24.9614 11.4169 24.9636 11.4122 24.9657 11.4076C24.9687 11.4013 24.9714 11.3949 24.9739 11.3885C24.9758 11.3839 24.9774 11.3793 24.979 11.3746C24.9813 11.368 24.9834 11.3614 24.9854 11.3547C24.9868 11.3495 24.9882 11.3443 24.9894 11.3392C24.9909 11.333 24.9924 11.3268 24.9935 11.3205C24.9946 11.3141 24.9956 11.3076 24.9964 11.3012C24.9972 11.296 24.9979 11.2908 24.9984 11.2854C24.9991 11.2776 24.9994 11.2697 24.9995 11.2617C24.9996 11.2586 25 11.2557 25 11.2526V5.81189C25.0001 4.51637 23.9453 3.46245 22.6487 3.46245Z" fill="#EE5253"></path></svg>